<?xml version="1.0" encoding="utf-8"?>
<!-- Generator: Adobe Illustrator 24.0.2, SVG Export Plug-In . SVG Version: 6.00 Build 0)  -->
<svg version="1.1" id="レイヤー_1" xmlns="http://www.w3.org/2000/svg" xmlns:xlink="http://www.w3.org/1999/xlink" x="0px"
	 y="0px" viewBox="0 0 16 16" style="enable-background:new 0 0 16 16;" xml:space="preserve">
<style type="text/css">
	.st0{fill-rule:evenodd;clip-rule:evenodd;fill:#1D1D1B;}
</style>
<g>
	<g>
		<g>
			<path class="st0" d="M12.4,0H1.5v16h0.3l0,0h12.4l0,0h0.3l0-12.5L12.4,0z M11.3,7.1l-4.6,8l0,0l-0.5-0.8l4.1-7.1H9.2l-3.6,6.2
				l-0.5-0.9l1-1.7l-0.5-1l-3,5.3l0,0l0,0v-1.7l2.1-3.6h-1l-1.1,1.9L2.5,0.9h8.8v2.6h2.1v7.3L11.3,7.1z M4.7,3.5
				c-1,0-1.8,0.8-1.8,1.8c0,1,0.8,1.8,1.8,1.8s1.8-0.8,1.8-1.8C6.4,4.4,5.7,3.5,4.7,3.5z"/>
		</g>
	</g>
</g>
</svg>
