<?xml version="1.0" encoding="utf-8"?>
<!-- Generator: Adobe Illustrator 24.0.2, SVG Export Plug-In . SVG Version: 6.00 Build 0)  -->
<svg version="1.1" id="レイヤー_1" xmlns="http://www.w3.org/2000/svg" xmlns:xlink="http://www.w3.org/1999/xlink" x="0px"
	 y="0px" viewBox="0 0 120 30" style="enable-background:new 0 0 120 30;" xml:space="preserve">
<style type="text/css">
	.st0{fill-rule:evenodd;clip-rule:evenodd;}
	.st1{fill:#1D1D1B;}
</style>
<title>logo_typo</title>
<g>
	<g>
		<path class="st0" d="M19.9,0H0v29.9h26.6V6.6L19.9,0z M19.9,2.5l4.2,4.2h-4.2V2.5z M24.9,19.6c-2.3-4-4.6-8-4.6-8l-9.5,16.5
			l-1-1.8l8.5-14.7h-2.1L8.8,24.5l-1-1.8l2.1-3.6l-1-1.8l-2.1,3.6l0,0l-4.2,7.2l-0.9-1.5V26l5-8.7l-2.1,0l-2.9,5.1V1.7h16.6v6.6h6.6
			V19.6z M6.6,6.6c-1.8,0-3.3,1.5-3.3,3.3s1.5,3.3,3.3,3.3c1.8,0,3.3-1.5,3.3-3.3S8.5,6.6,6.6,6.6z"/>
	</g>
</g>
<g>
	<g>
		<g>
			<path class="st1" d="M49.4,15.2c-0.2-0.1-0.5-0.2-0.8-0.2h-2.9l2.8,9.1l1.8-6.5l-0.5-1.8C49.7,15.5,49.6,15.3,49.4,15.2z
				 M41,24.5c0,0.5,0,0.9-0.1,1.3c-0.1,0.3-0.2,0.6-0.4,0.8c-0.2,0.2-0.4,0.4-0.7,0.5c-0.3,0.1-0.6,0.1-0.9,0.1
				c-0.3,0-0.5,0-0.7-0.1c-0.2,0-0.3-0.1-0.5-0.1c-0.2,0-0.4,0.1-0.6,0.2c-0.1,0.1-0.2,0.3-0.2,0.4l-0.2,2c0.4,0.1,0.9,0.2,1.3,0.2
				s0.8,0.1,1.2,0.1c0.9,0,1.7-0.1,2.4-0.4c0.7-0.3,1.3-0.6,1.7-1.1c0.5-0.5,0.8-1.1,1-1.7c0.2-0.7,0.3-1.4,0.3-2.3V15H41V24.5z
				 M34.2,27.4c-0.1-0.1-0.3-0.2-0.5-0.3C33.6,27,33.4,27,33.2,27c-0.2,0-0.4,0-0.6,0.1c-0.2,0.1-0.3,0.2-0.5,0.3
				c-0.1,0.1-0.2,0.3-0.3,0.5c-0.1,0.2-0.1,0.4-0.1,0.6c0,0.2,0,0.4,0.1,0.6c0.1,0.2,0.2,0.3,0.3,0.5c0.1,0.1,0.3,0.2,0.5,0.3
				C32.8,30,33,30,33.2,30c0.2,0,0.4,0,0.6-0.1c0.2-0.1,0.3-0.2,0.5-0.3c0.1-0.1,0.2-0.3,0.3-0.5c0.1-0.2,0.1-0.4,0.1-0.6
				c0-0.2,0-0.4-0.1-0.6C34.5,27.7,34.4,27.6,34.2,27.4z M90,24.1c0,0.2,0.1,0.3,0.2,0.4c0.1,0.1,0.3,0.2,0.5,0.2h1.5v2.2
				c-0.3,0.1-0.7,0.2-1.1,0.3c-0.4,0.1-0.8,0.1-1.3,0.1c-0.7,0-1.3-0.1-1.8-0.3c-0.6-0.2-1-0.5-1.4-1c-0.4-0.4-0.7-0.9-0.9-1.5
				c-0.2-0.6-0.3-1.3-0.3-2.1c0-0.7,0.1-1.3,0.3-1.9c0.2-0.6,0.5-1.1,0.9-1.5c0.4-0.4,0.8-0.7,1.4-1c0.5-0.2,1.1-0.3,1.8-0.3
				c0.4,0,0.7,0,1,0.1c0.3,0,0.6,0.1,0.8,0.2c0.3,0.1,0.5,0.2,0.8,0.3c0.3,0.1,0.5,0.3,0.8,0.4c0.2,0.1,0.4,0.2,0.7,0.2
				c0.2,0,0.3,0,0.5-0.1c0.1-0.1,0.3-0.2,0.4-0.3l1-1.5c-0.3-0.3-0.7-0.5-1.1-0.8c-0.4-0.2-0.8-0.4-1.3-0.6c-0.5-0.2-1-0.3-1.6-0.4
				C91.2,15,90.5,15,89.9,15c-1.3,0-2.4,0.2-3.4,0.6c-1,0.4-1.9,0.9-2.6,1.6c-0.7,0.7-1.3,1.5-1.6,2.4c-0.4,0.9-0.6,1.9-0.6,3
				c0,1.1,0.2,2.1,0.6,3s1,1.7,1.7,2.4c0.7,0.7,1.5,1.2,2.5,1.6c1,0.4,2,0.6,3.2,0.6c0.6,0,1.2,0,1.8-0.1c0.6-0.1,1.1-0.2,1.6-0.3
				c0.5-0.1,0.9-0.3,1.4-0.5c0.4-0.2,0.8-0.4,1.2-0.7v-6.2H90V24.1z M55.2,15.2c-0.2,0.2-0.3,0.3-0.4,0.5L50.9,30H54l4.7-15h-2.8
				C55.6,15,55.4,15.1,55.2,15.2z M79.2,16.4c-0.5-0.4-1.2-0.8-2-1c-0.8-0.3-1.8-0.4-2.9-0.4h-5.6v15h3.7v-5h1.9
				c1.1,0,2-0.1,2.9-0.4c0.8-0.3,1.5-0.6,2-1c0.5-0.4,0.9-1,1.2-1.6c0.3-0.6,0.4-1.3,0.4-2.1c0-0.7-0.1-1.3-0.4-1.9
				C80.1,17.4,79.7,16.9,79.2,16.4z M76.4,21.7c-0.4,0.4-1.1,0.6-2.1,0.6h-1.9v-4.7h1.9c0.5,0,0.9,0.1,1.2,0.2
				c0.3,0.1,0.6,0.3,0.8,0.5c0.2,0.2,0.4,0.4,0.5,0.7c0.1,0.3,0.2,0.6,0.2,0.9C77,20.7,76.8,21.3,76.4,21.7z M64.2,15.2
				c-0.2,0.2-0.3,0.3-0.4,0.5L59.9,30H63l4.7-15h-2.8C64.6,15,64.4,15.1,64.2,15.2z"/>
		</g>
	</g>
</g>
</svg>
