<?xml version="1.0" encoding="utf-8"?>
<!-- Generator: Adobe Illustrator 24.0.2, SVG Export Plug-In . SVG Version: 6.00 Build 0)  -->
<svg version="1.1" id="レイヤー_1" xmlns="http://www.w3.org/2000/svg" xmlns:xlink="http://www.w3.org/1999/xlink" x="0px"
	 y="0px" viewBox="0 0 64 48" style="enable-background:new 0 0 64 48;" xml:space="preserve">
<style type="text/css">
	.st0{fill-rule:evenodd;clip-rule:evenodd;fill:#FFFFFF;}
</style>
<g>
	<g>
		<g>
			<path class="st0" d="M24.8,40.5c-0.1-0.1-0.2-0.1-0.4-0.1h-1.5l1.4,4.6l0.9-3.3L25,40.8C25,40.7,24.9,40.6,24.8,40.5z M20.5,45.2
				c0,0.3,0,0.5-0.1,0.6c0,0.2-0.1,0.3-0.2,0.4c-0.1,0.1-0.2,0.2-0.3,0.2c-0.1,0-0.3,0.1-0.5,0.1c-0.1,0-0.2,0-0.3,0
				c-0.1,0-0.2,0-0.2,0c-0.1,0-0.2,0-0.3,0.1c-0.1,0.1-0.1,0.1-0.1,0.2l-0.1,1c0.2,0,0.4,0.1,0.6,0.1c0.2,0,0.4,0,0.6,0
				c0.5,0,0.9-0.1,1.2-0.2c0.3-0.1,0.6-0.3,0.9-0.6c0.2-0.2,0.4-0.5,0.5-0.9c0.1-0.3,0.2-0.7,0.2-1.1v-4.8h-1.9V45.2z M17.1,46.7
				c-0.1-0.1-0.1-0.1-0.2-0.2c-0.1,0-0.2-0.1-0.3-0.1c-0.1,0-0.2,0-0.3,0.1c-0.1,0-0.2,0.1-0.2,0.2s-0.1,0.1-0.2,0.2
				c0,0.1-0.1,0.2-0.1,0.3s0,0.2,0.1,0.3c0,0.1,0.1,0.2,0.2,0.2s0.1,0.1,0.2,0.2c0.1,0,0.2,0.1,0.3,0.1c0.1,0,0.2,0,0.3-0.1
				c0.1,0,0.2-0.1,0.2-0.2c0.1-0.1,0.1-0.1,0.2-0.2c0-0.1,0.1-0.2,0.1-0.3s0-0.2-0.1-0.3C17.3,46.8,17.2,46.8,17.1,46.7z M27.7,40.5
				c-0.1,0.1-0.2,0.2-0.2,0.3l-2,7.2h1.6l2.4-7.6h-1.4C27.9,40.4,27.8,40.5,27.7,40.5z M40.1,0H15.8v36.4h32.3V8.1L40.1,0z M40.1,3
				l5.1,5.1h-5.1V3z M46.1,23.8c-2.8-4.9-5.6-9.7-5.6-9.7L29,34.2L27.8,32l10.3-17.8h-2.5l-9,15.6l-1.3-2.2l2.5-4.4l-1.3-2.2
				L24,25.4l0,0l-5.1,8.8l-1.1-1.9v-0.7L24,21.1l-2.5,0l-3.6,6.2V2h20.2v8.1h8.1V23.8z M32.3,40.5c-0.1,0.1-0.2,0.2-0.2,0.3l-2,7.2
				h1.6l2.4-7.6h-1.4C32.5,40.4,32.4,40.5,32.3,40.5z M43.6,42.5c0.2-0.2,0.4-0.4,0.7-0.5c0.3-0.1,0.6-0.2,0.9-0.2
				c0.2,0,0.3,0,0.5,0c0.1,0,0.3,0,0.4,0.1c0.1,0,0.3,0.1,0.4,0.1c0.1,0.1,0.3,0.1,0.4,0.2c0.1,0.1,0.2,0.1,0.3,0.1
				c0.1,0,0.2,0,0.2-0.1c0.1,0,0.1-0.1,0.2-0.2l0.5-0.8c-0.2-0.1-0.3-0.3-0.5-0.4c-0.2-0.1-0.4-0.2-0.7-0.3s-0.5-0.2-0.8-0.2
				c-0.3-0.1-0.6-0.1-0.9-0.1c-0.6,0-1.2,0.1-1.7,0.3c-0.5,0.2-0.9,0.4-1.3,0.8c-0.4,0.3-0.6,0.7-0.8,1.2c-0.2,0.5-0.3,1-0.3,1.5
				c0,0.5,0.1,1,0.3,1.5c0.2,0.5,0.5,0.9,0.8,1.2c0.4,0.3,0.8,0.6,1.3,0.8c0.5,0.2,1,0.3,1.6,0.3c0.3,0,0.6,0,0.9,0
				c0.3,0,0.5-0.1,0.8-0.1c0.2-0.1,0.5-0.1,0.7-0.2c0.2-0.1,0.4-0.2,0.6-0.4v-3.1h-2.8V45c0,0.1,0,0.2,0.1,0.2
				c0.1,0.1,0.2,0.1,0.3,0.1h0.8v1.1c-0.2,0.1-0.4,0.1-0.6,0.2c-0.2,0-0.4,0.1-0.7,0.1c-0.3,0-0.6-0.1-0.9-0.2
				c-0.3-0.1-0.5-0.3-0.7-0.5c-0.2-0.2-0.4-0.5-0.5-0.8c-0.1-0.3-0.2-0.7-0.2-1c0-0.4,0.1-0.7,0.2-1C43.2,42.9,43.4,42.7,43.6,42.5z
				 M39.8,41.1c-0.3-0.2-0.6-0.4-1-0.5c-0.4-0.1-0.9-0.2-1.5-0.2h-2.8V48h1.9v-2.5h1c0.6,0,1-0.1,1.4-0.2c0.4-0.1,0.7-0.3,1-0.5
				c0.3-0.2,0.5-0.5,0.6-0.8c0.1-0.3,0.2-0.7,0.2-1c0-0.3-0.1-0.7-0.2-1C40.3,41.6,40.1,41.4,39.8,41.1z M38.4,43.8
				c-0.2,0.2-0.6,0.3-1,0.3h-1v-2.4h1c0.2,0,0.4,0,0.6,0.1c0.2,0.1,0.3,0.1,0.4,0.2c0.1,0.1,0.2,0.2,0.3,0.4
				c0.1,0.1,0.1,0.3,0.1,0.5C38.7,43.3,38.6,43.6,38.4,43.8z M23.9,8.1c-2.2,0-4,1.8-4,4c0,2.2,1.8,4,4,4c2.2,0,4-1.8,4-4
				C28,9.9,26.2,8.1,23.9,8.1z"/>
		</g>
	</g>
</g>
</svg>
