<?xml version="1.0" encoding="utf-8"?>
<!-- Generator: Adobe Illustrator 24.0.2, SVG Export Plug-In . SVG Version: 6.00 Build 0)  -->
<svg version="1.1" id="レイヤー_1" xmlns="http://www.w3.org/2000/svg" xmlns:xlink="http://www.w3.org/1999/xlink" x="0px"
	 y="0px" viewBox="0 0 64 48" style="enable-background:new 0 0 64 48;" xml:space="preserve">
<style type="text/css">
	.st0{fill:#FFFFFF;}
	.st1{font-family:'Lato-Bold';}
	.st2{font-size:1.9501px;}
	.st3{fill-rule:evenodd;clip-rule:evenodd;fill:#FFFFFF;}
</style>
<g>
	<g>
		<g>
			<path class="st0" d="M21.9,40.4c0,0.2,0,0.4-0.1,0.6s-0.1,0.3-0.2,0.4c-0.1,0.1-0.2,0.2-0.3,0.2c-0.1,0-0.3,0.1-0.4,0.1
				c-0.1,0-0.2,0-0.3,0c-0.1,0-0.2,0-0.2,0c-0.1,0-0.2,0-0.3,0.1c-0.1,0-0.1,0.1-0.1,0.2l0,1c0.2,0,0.4,0.1,0.6,0.1s0.4,0,0.6,0
				c0.4,0,0.8-0.1,1.1-0.2c0.3-0.1,0.6-0.3,0.8-0.5c0.2-0.2,0.4-0.5,0.5-0.8c0.1-0.3,0.2-0.7,0.2-1.1V36h-1.8L21.9,40.4L21.9,40.4z
				 M25.7,36.1C25.7,36,25.5,36,25.4,36H24l1.3,4.3l0.9-3L26,36.3C25.9,36.2,25.8,36.1,25.7,36.1z M18.6,41.8
				c-0.1-0.1-0.2-0.1-0.2-0.2c-0.1,0-0.2,0-0.3,0c-0.1,0-0.2,0-0.3,0s-0.2,0.1-0.2,0.2c-0.1,0.1-0.1,0.2-0.2,0.2c0,0.1,0,0.2,0,0.3
				s0,0.2,0,0.3c0,0.1,0.1,0.2,0.2,0.2s0.1,0.1,0.2,0.2c0.1,0,0.2,0,0.3,0c0.1,0,0.2,0,0.3,0c0.1,0,0.2-0.1,0.2-0.2
				c0.1-0.1,0.1-0.2,0.2-0.2c0-0.1,0-0.2,0-0.3c0-0.1,0-0.2,0-0.3C18.7,41.9,18.6,41.8,18.6,41.8z M38.9,36.6
				c-0.2-0.2-0.5-0.4-0.9-0.5C37.6,36,37.1,36,36.6,36H34v7h1.7v-2.3h0.9c0.5,0,1,0,1.3-0.2c0.4-0.1,0.7-0.3,0.9-0.5
				c0.2-0.2,0.4-0.5,0.5-0.7c0.1-0.3,0.2-0.6,0.2-1c0-0.3,0-0.6-0.2-0.9C39.3,37,39.1,36.8,38.9,36.6z M37.6,39.1
				c-0.2,0.2-0.5,0.3-1,0.3h-0.9v-2.2h0.9c0.2,0,0.4,0,0.5,0.1c0.2,0,0.3,0.1,0.4,0.2c0.1,0.1,0.2,0.2,0.2,0.4
				c0,0.1,0.1,0.3,0.1,0.4C37.9,38.6,37.8,38.9,37.6,39.1z M44,40.2c0,0.1,0,0.2,0.1,0.2c0.1,0,0.2,0.1,0.2,0.1H45v1.1
				c-0.2,0.1-0.3,0.1-0.5,0.2c-0.2,0-0.4,0-0.6,0c-0.3,0-0.6,0-0.9-0.2s-0.5-0.2-0.7-0.4c-0.2-0.2-0.4-0.4-0.4-0.7
				c-0.1-0.3-0.2-0.6-0.2-1c0-0.3,0-0.6,0.2-0.9c0.1-0.3,0.2-0.5,0.4-0.7c0.2-0.2,0.4-0.4,0.7-0.4c0.2-0.1,0.5-0.2,0.9-0.2
				c0.2,0,0.3,0,0.5,0c0.2,0,0.3,0,0.4,0.1c0.1,0,0.2,0.1,0.4,0.1s0.2,0.1,0.4,0.2c0.1,0.1,0.2,0.1,0.3,0.1c0.1,0,0.2,0,0.2,0
				c0.1,0,0.1-0.1,0.2-0.2l0.5-0.7c-0.2-0.1-0.3-0.3-0.5-0.4c-0.2-0.1-0.4-0.2-0.6-0.3c-0.2-0.1-0.5-0.2-0.7-0.2
				c-0.3,0-0.5-0.1-0.9-0.1c-0.6,0-1.1,0.1-1.6,0.3c-0.5,0.2-0.9,0.4-1.2,0.7c-0.4,0.3-0.6,0.7-0.8,1.1C40.1,38.5,40,39,40,39.5
				c0,0.5,0.1,1,0.3,1.4c0.2,0.4,0.4,0.8,0.8,1.1c0.3,0.3,0.7,0.5,1.2,0.7c0.5,0.2,0.9,0.3,1.5,0.3c0.3,0,0.6,0,0.8,0
				c0.3,0,0.5-0.1,0.7-0.1c0.2-0.1,0.4-0.1,0.7-0.2c0.2-0.1,0.4-0.2,0.6-0.4v-2.9H44V40.2z M28.4,36.1c-0.1,0.1-0.2,0.2-0.2,0.2
				L26.3,43h1.5l2.2-7h-1.3C28.6,36,28.5,36,28.4,36.1z M31.7,36.1c-0.1,0.1-0.2,0.2-0.2,0.2L29.7,43h1.5l2.2-7h-1.3
				C31.9,36,31.8,36,31.7,36.1z"/>
		</g>
	</g>
</g>
<text transform="matrix(1 0 0 1 17.543 46.679)" class="st0 st1 st2">JONGWOONG PARK GRAPHICS</text>
<g>
	<g>
		<path class="st3" d="M24.8,7.2c-2,0-3.6,1.6-3.6,3.6s1.6,3.6,3.6,3.6s3.6-1.6,3.6-3.6S26.8,7.2,24.8,7.2z M39.3,0H17.5v32.5h29
			V7.2L39.3,0z M39.3,2.7l4.5,4.5h-4.5V2.7z M44.7,21.3v-0.2c-2.5-4.3-4.9-8.5-4.9-8.5L29.3,30.5l-1.1-2l9.2-16h-2.3l-8.1,14l-1.1-2
			l2.2-3.9l-1.1-2l-2.3,3.9l-4.4,8l-1-1.7v-0.6l5.5-9.5h-2.3l-3.2,5.6V1.8h18.2V9h7.2v12.1c0,0.1,0.1,0.1,0.1,0.2H44.7z"/>
	</g>
</g>
</svg>
