<?xml version="1.0" encoding="utf-8"?>
<!-- Generator: Adobe Illustrator 24.0.2, SVG Export Plug-In . SVG Version: 6.00 Build 0)  -->
<svg version="1.1" id="レイヤー_1" xmlns="http://www.w3.org/2000/svg" xmlns:xlink="http://www.w3.org/1999/xlink" x="0px"
	 y="0px" viewBox="0 0 64 48" style="enable-background:new 0 0 64 48;" xml:space="preserve">
<style type="text/css">
	.st0{fill:#1D1D1B;}
	.st1{fill-rule:evenodd;clip-rule:evenodd;fill:#1D1D1B;}
</style>
<g>
	<path d="M34.5,40.7V43h-1.6v-6.9h2.4c0.5,0,0.9,0.1,1.2,0.2c0.3,0.1,0.6,0.3,0.9,0.5c0.2,0.2,0.4,0.4,0.5,0.7
		c0.1,0.3,0.2,0.6,0.2,0.9c0,0.3-0.1,0.7-0.2,0.9c-0.1,0.3-0.3,0.5-0.5,0.7c-0.2,0.2-0.5,0.4-0.9,0.5c-0.3,0.1-0.8,0.2-1.2,0.2H34.5
		z M34.5,39.5h0.8c0.4,0,0.7-0.1,0.9-0.3c0.2-0.2,0.3-0.5,0.3-0.8c0-0.2,0-0.3-0.1-0.4s-0.1-0.2-0.2-0.3c-0.1-0.1-0.2-0.2-0.4-0.2
		s-0.3-0.1-0.5-0.1h-0.8V39.5z"/>
</g>
<path class="st0" d="M24.4,36.1H23l1.3,4.2l0.9-2.9l-0.2-1C24.9,36.1,24.4,36.1,24.4,36.1z"/>
<path class="st0" d="M27,36.4L25.1,43h1.5l2.2-6.9h-1.3C27.5,36.1,27.1,36.1,27,36.4z"/>
<path class="st0" d="M30,36.4L28.2,43h1.5l2.2-6.9h-1.3C30.6,36.1,30.1,36.1,30,36.4z"/>
<circle class="st0" cx="17" cy="42.2" r="0.7"/>
<g>
	<g>
		<g>
			<path class="st1" d="M40.9,0h-22v32.4h0.5l0,0h25.1l0,0h0.6l0.1-25.3L40.9,0z M38.7,14.4l-9.3,16.2l0,0l-1-1.7l8.3-14.5h-2.2
				L27.3,27l-1-1.8l2.1-3.5l-1.1-1.9L21,30.6l0,0v-0.1V27l4.2-7.3h-2.1l-2.2,3.9L20.7,1.8h17.9v5.4H43v14.7L38.7,14.4z M25.2,7.2
				c-2,0-3.6,1.7-3.6,3.6s1.7,3.6,3.6,3.6c2,0,3.6-1.7,3.6-3.6S27.3,7.2,25.2,7.2z"/>
		</g>
	</g>
</g>
<g>
	<path d="M22.3,40.5c0,0.4,0,0.7-0.1,1c-0.1,0.3-0.2,0.6-0.4,0.8c-0.2,0.2-0.4,0.4-0.7,0.5C20.7,43,20.4,43,20,43
		c-0.2,0-0.4,0-0.5,0c-0.2,0-0.4,0-0.5-0.1L19,42c0-0.1,0-0.1,0.1-0.2c0.1,0,0.1-0.1,0.2-0.1c0.1,0,0.1,0,0.2,0c0.1,0,0.2,0,0.3,0
		c0.2,0,0.3,0,0.4-0.1c0.1,0,0.2-0.1,0.3-0.2s0.1-0.2,0.2-0.4c0-0.2,0.1-0.4,0.1-0.6v-4.4h1.6V40.5z"/>
</g>
<g>
	<path d="M42.6,41.8c0.2,0,0.4,0,0.6-0.1c0.2,0,0.3-0.1,0.5-0.1v-1H43c-0.1,0-0.2,0-0.2-0.1c-0.1-0.1-0.1-0.1-0.1-0.2v-0.9h2.4v2.9
		c-0.2,0.1-0.4,0.2-0.5,0.3c-0.2,0.1-0.4,0.2-0.6,0.2c-0.2,0.1-0.4,0.1-0.7,0.1s-0.5,0-0.8,0c-0.5,0-1-0.1-1.4-0.3
		c-0.4-0.2-0.8-0.4-1.1-0.7c-0.3-0.3-0.5-0.7-0.7-1.1C39.1,40.5,39,40,39,39.5c0-0.5,0.1-1,0.3-1.4c0.2-0.4,0.4-0.8,0.7-1.1
		c0.3-0.3,0.7-0.5,1.1-0.7c0.4-0.2,0.9-0.3,1.5-0.3c0.3,0,0.5,0,0.8,0.1c0.2,0,0.5,0.1,0.7,0.2c0.2,0.1,0.4,0.2,0.6,0.3
		c0.2,0.1,0.3,0.2,0.5,0.4l-0.5,0.7c0,0.1-0.1,0.1-0.2,0.2c-0.1,0-0.1,0.1-0.2,0.1c-0.1,0-0.2,0-0.3-0.1c-0.1-0.1-0.2-0.1-0.3-0.2
		c-0.1-0.1-0.2-0.1-0.3-0.1c-0.1,0-0.2-0.1-0.4-0.1c-0.1,0-0.3,0-0.4,0c-0.3,0-0.6,0.1-0.8,0.2c-0.2,0.1-0.4,0.2-0.6,0.4
		c-0.2,0.2-0.3,0.4-0.4,0.7c-0.1,0.3-0.1,0.6-0.1,0.9c0,0.4,0,0.7,0.1,1c0.1,0.3,0.2,0.5,0.4,0.7c0.2,0.2,0.4,0.3,0.6,0.4
		C42,41.7,42.3,41.8,42.6,41.8z"/>
</g>
</svg>
