<?xml version="1.0" encoding="utf-8"?>
<!-- Generator: Adobe Illustrator 24.0.2, SVG Export Plug-In . SVG Version: 6.00 Build 0)  -->
<svg version="1.1" id="レイヤー_1" xmlns="http://www.w3.org/2000/svg" xmlns:xlink="http://www.w3.org/1999/xlink" x="0px"
	 y="0px" viewBox="0 0 64 48" style="enable-background:new 0 0 64 48;" xml:space="preserve">
<style type="text/css">
	.st0{fill:#FFFFFF;}
	.st1{fill-rule:evenodd;clip-rule:evenodd;fill:#FFFFFF;}
</style>
<path class="st0" d="M37.9,37.5c-0.1-0.3-0.3-0.5-0.5-0.7s-0.5-0.4-0.9-0.5c-0.3-0.1-0.8-0.2-1.2-0.2h-2.4V43h1.6v-2.3h0.8
	c0.5,0,0.9-0.1,1.2-0.2s0.6-0.3,0.9-0.5c0.2-0.2,0.4-0.4,0.5-0.7s0.2-0.6,0.2-0.9C38.1,38,38,37.7,37.9,37.5z M36.2,39.2
	c-0.2,0.2-0.5,0.3-0.9,0.3h-0.8v-2.2h0.8c0.2,0,0.4,0,0.5,0.1c0.1,0,0.3,0.1,0.4,0.2c0.1,0.1,0.2,0.2,0.2,0.3c0,0.1,0.1,0.3,0.1,0.4
	C36.5,38.7,36.4,39,36.2,39.2z"/>
<path class="st0" d="M42.5,41.8c0.2,0,0.4,0,0.6-0.1s0.3-0.1,0.5-0.1v-1h-0.7c-0.1,0-0.2,0-0.2-0.1s-0.1-0.1-0.1-0.2v-0.9H45v2.9
	c-0.2,0.1-0.4,0.2-0.5,0.3c-0.2,0.1-0.4,0.2-0.6,0.2s-0.4,0.1-0.7,0.1c-0.2,0-0.5,0-0.8,0c-0.5,0-1-0.1-1.4-0.3
	c-0.4-0.2-0.8-0.4-1.1-0.7c-0.3-0.3-0.5-0.7-0.7-1.1C39.1,40.5,39,40,39,39.5c0-0.5,0.1-1,0.3-1.4s0.4-0.8,0.7-1.1
	c0.3-0.3,0.7-0.5,1.1-0.7c0.4-0.2,0.9-0.3,1.5-0.3c0.3,0,0.5,0,0.8,0.1c0.2,0,0.5,0.1,0.7,0.2c0.2,0.1,0.4,0.2,0.6,0.3
	s0.3,0.2,0.5,0.4l-0.5,0.7c0,0.1-0.1,0.1-0.2,0.2c-0.1,0-0.1,0.1-0.2,0.1c-0.1,0-0.2,0-0.3-0.1c-0.1-0.1-0.2-0.1-0.4-0.2
	c-0.1-0.1-0.2-0.1-0.3-0.1c-0.1,0-0.2-0.1-0.4-0.1c-0.1,0-0.3,0-0.4,0c-0.3,0-0.6,0.1-0.8,0.2s-0.4,0.2-0.6,0.4
	c-0.2,0.2-0.3,0.4-0.4,0.7s-0.1,0.6-0.1,0.9c0,0.4,0,0.7,0.1,1s0.2,0.5,0.4,0.7c0.2,0.2,0.4,0.3,0.6,0.4
	C42,41.7,42.3,41.8,42.5,41.8z"/>
<path class="st0" d="M22.4,40.4c0,0.4,0,0.7-0.1,1c-0.1,0.3-0.2,0.6-0.4,0.8c-0.2,0.2-0.4,0.4-0.7,0.5c-0.3,0.1-0.6,0.2-1,0.2
	c-0.2,0-0.4,0-0.5,0s-0.4,0-0.5-0.1l0.1-0.9c0-0.1,0-0.1,0.1-0.2s0.1-0.1,0.2-0.1c0.1,0,0.1,0,0.2,0c0.1,0,0.2,0,0.3,0
	c0.2,0,0.3,0,0.4-0.1c0.1,0,0.2-0.1,0.3-0.2c0.1-0.1,0.1-0.2,0.2-0.4c0-0.2,0.1-0.4,0.1-0.6v-4.4h1.6V40.4z"/>
<path class="st0" d="M24.4,36.1H23l1.3,4.2l0.9-2.9l-0.2-1C24.9,36.1,24.4,36.1,24.4,36.1z"/>
<path class="st0" d="M27,36.4L25.1,43h1.5l2.2-6.9h-1.3C27.5,36.1,27.1,36.1,27,36.4z"/>
<path class="st0" d="M30,36.4L28.2,43h1.5l2.2-6.9h-1.3C30.6,36.1,30.1,36.1,30,36.4z"/>
<circle class="st0" cx="17" cy="42.2" r="0.7"/>
<path class="st0" d="M19.5,45.7c0,0.1,0,0.1,0,0.2c0,0.1,0,0.1-0.1,0.1c0,0-0.1,0.1-0.1,0.1c-0.1,0-0.1,0-0.2,0c0,0-0.1,0-0.1,0
	c0,0-0.1,0-0.1,0l0-0.1c0,0,0,0,0,0c0,0,0,0,0,0c0,0,0,0,0,0c0,0,0,0,0.1,0c0,0,0.1,0,0.1,0s0,0,0.1,0c0,0,0,0,0-0.1
	c0,0,0-0.1,0-0.1v-0.8h0.2V45.7z"/>
<path class="st0" d="M21,45.3c0-0.1-0.1-0.1-0.1-0.2C20.8,45,20.7,45,20.6,45c-0.1,0-0.2,0-0.3,0c-0.1,0-0.2,0-0.3,0
	c-0.1,0-0.1,0.1-0.2,0.1c-0.1,0.1-0.1,0.1-0.1,0.2c0,0.1,0,0.2,0,0.3c0,0.1,0,0.2,0,0.3c0,0.1,0.1,0.1,0.1,0.2
	c0.1,0.1,0.1,0.1,0.2,0.1c0.1,0,0.2,0,0.3,0c0.1,0,0.2,0,0.3,0c0.1,0,0.1-0.1,0.2-0.1c0.1-0.1,0.1-0.1,0.1-0.2c0-0.1,0-0.2,0-0.3
	C21,45.5,21,45.4,21,45.3z M20.7,45.7c0,0.1,0,0.1-0.1,0.1c0,0-0.1,0.1-0.1,0.1s-0.1,0-0.2,0c-0.1,0-0.1,0-0.2,0c0,0-0.1,0-0.1-0.1
	c0,0-0.1-0.1-0.1-0.1s0-0.1,0-0.2c0-0.1,0-0.1,0-0.2s0-0.1,0.1-0.1c0,0,0.1-0.1,0.1-0.1c0.1,0,0.1,0,0.2,0c0.1,0,0.1,0,0.2,0
	s0.1,0.1,0.1,0.1c0,0,0.1,0.1,0.1,0.1s0,0.1,0,0.2C20.8,45.6,20.7,45.7,20.7,45.7z"/>
<path class="st0" d="M21.3,44.9C21.3,44.9,21.4,44.9,21.3,44.9C21.4,44.9,21.4,44.9,21.3,44.9C21.4,44.9,21.4,45,21.3,44.9l0.7,0.9
	c0,0,0,0,0-0.1s0,0,0-0.1v-0.8h0.2v1.3h-0.1c0,0,0,0,0,0s0,0,0,0l-0.7-0.8c0,0,0,0,0,0.1c0,0,0,0,0,0.1v0.8h-0.2v-1.3L21.3,44.9
	C21.3,44.9,21.3,44.9,21.3,44.9z"/>
<path class="st0" d="M23.1,46c0.1,0,0.1,0,0.1,0c0,0,0.1,0,0.1,0v-0.2h-0.2c0,0,0,0,0,0c0,0,0,0,0,0v-0.1h0.4v0.5c0,0-0.1,0-0.1,0.1
	c0,0-0.1,0-0.1,0c0,0-0.1,0-0.1,0s-0.1,0-0.1,0c-0.1,0-0.2,0-0.3,0s-0.1-0.1-0.2-0.1c-0.1-0.1-0.1-0.1-0.1-0.2c0-0.1,0-0.2,0-0.3
	c0-0.1,0-0.2,0-0.3c0-0.1,0.1-0.1,0.1-0.2c0.1-0.1,0.1-0.1,0.2-0.1c0.1,0,0.2,0,0.3,0c0.1,0,0.2,0,0.3,0c0.1,0,0.1,0.1,0.2,0.1
	l-0.1,0.1c0,0,0,0-0.1,0c0,0,0,0,0,0c0,0,0,0-0.1,0c0,0,0,0-0.1,0c0,0-0.1,0-0.1,0c0,0-0.1,0-0.1,0c-0.1,0-0.1,0-0.2,0
	c-0.1,0-0.1,0.1-0.1,0.1c0,0-0.1,0.1-0.1,0.1c0,0.1,0,0.1,0,0.2c0,0.1,0,0.1,0,0.2c0,0.1,0,0.1,0.1,0.1c0,0,0.1,0.1,0.1,0.1
	C23,46,23,46,23.1,46z"/>
<path class="st0" d="M23.7,44.9h0.2c0,0,0,0,0.1,0s0,0,0,0l0.2,0.8c0,0,0,0,0,0.1c0,0,0,0,0,0.1c0,0,0,0,0-0.1c0,0,0,0,0-0.1
	l0.3-0.8c0,0,0,0,0,0c0,0,0,0,0.1,0h0.1c0,0,0,0,0.1,0s0,0,0,0l0.2,0.8c0,0,0,0.1,0,0.1c0,0,0,0,0-0.1c0,0,0,0,0-0.1l0.2-0.8
	c0,0,0,0,0,0c0,0,0,0,0.1,0h0.2l-0.4,1.3h-0.2l-0.3-0.9c0,0,0,0,0,0s0,0,0,0c0,0,0,0,0,0c0,0,0,0,0,0l-0.3,0.9h-0.2L23.7,44.9z"/>
<path class="st0" d="M26.8,45.3c0-0.1-0.1-0.1-0.1-0.2C26.6,45,26.6,45,26.5,45c-0.1,0-0.2,0-0.3,0c-0.1,0-0.2,0-0.3,0
	c-0.1,0-0.1,0.1-0.2,0.1c-0.1,0.1-0.1,0.1-0.1,0.2c0,0.1,0,0.2,0,0.3c0,0.1,0,0.2,0,0.3c0,0.1,0.1,0.1,0.1,0.2
	c0.1,0.1,0.1,0.1,0.2,0.1c0.1,0,0.2,0,0.3,0c0.1,0,0.2,0,0.3,0c0.1,0,0.1-0.1,0.2-0.1c0.1-0.1,0.1-0.1,0.1-0.2c0-0.1,0-0.2,0-0.3
	C26.9,45.5,26.9,45.4,26.8,45.3z M26.6,45.7c0,0.1,0,0.1-0.1,0.1c0,0-0.1,0.1-0.1,0.1s-0.1,0-0.2,0c-0.1,0-0.1,0-0.2,0
	c0,0-0.1,0-0.1-0.1c0,0-0.1-0.1-0.1-0.1s0-0.1,0-0.2c0-0.1,0-0.1,0-0.2s0-0.1,0.1-0.1c0,0,0.1-0.1,0.1-0.1c0.1,0,0.1,0,0.2,0
	c0.1,0,0.1,0,0.2,0s0.1,0.1,0.1,0.1c0,0,0.1,0.1,0.1,0.1s0,0.1,0,0.2C26.6,45.6,26.6,45.7,26.6,45.7z"/>
<path class="st0" d="M28.2,45.3c0-0.1-0.1-0.1-0.1-0.2C28,45,28,45,27.9,45c-0.1,0-0.2,0-0.3,0c-0.1,0-0.2,0-0.3,0
	c-0.1,0-0.1,0.1-0.2,0.1c-0.1,0.1-0.1,0.1-0.1,0.2c0,0.1,0,0.2,0,0.3c0,0.1,0,0.2,0,0.3c0,0.1,0.1,0.1,0.1,0.2
	c0.1,0.1,0.1,0.1,0.2,0.1c0.1,0,0.2,0,0.3,0c0.1,0,0.2,0,0.3,0c0.1,0,0.1-0.1,0.2-0.1c0.1-0.1,0.1-0.1,0.1-0.2c0-0.1,0-0.2,0-0.3
	C28.3,45.5,28.3,45.4,28.2,45.3z M28,45.7c0,0.1,0,0.1-0.1,0.1c0,0-0.1,0.1-0.1,0.1s-0.1,0-0.2,0c-0.1,0-0.1,0-0.2,0
	c0,0-0.1,0-0.1-0.1c0,0-0.1-0.1-0.1-0.1s0-0.1,0-0.2c0-0.1,0-0.1,0-0.2s0-0.1,0.1-0.1c0,0,0.1-0.1,0.1-0.1c0.1,0,0.1,0,0.2,0
	c0.1,0,0.1,0,0.2,0s0.1,0.1,0.1,0.1c0,0,0.1,0.1,0.1,0.1s0,0.1,0,0.2C28,45.6,28,45.7,28,45.7z"/>
<path class="st0" d="M28.6,44.9C28.6,44.9,28.6,44.9,28.6,44.9C28.6,44.9,28.6,44.9,28.6,44.9C28.7,44.9,28.7,45,28.6,44.9l0.7,0.9
	c0,0,0,0,0-0.1s0,0,0-0.1v-0.8h0.2v1.3h-0.1c0,0,0,0,0,0s0,0,0,0l-0.7-0.8c0,0,0,0,0,0.1c0,0,0,0,0,0.1v0.8h-0.2v-1.3L28.6,44.9
	C28.6,44.9,28.6,44.9,28.6,44.9z"/>
<path class="st0" d="M30.4,46c0.1,0,0.1,0,0.1,0c0,0,0.1,0,0.1,0v-0.2h-0.2c0,0,0,0,0,0c0,0,0,0,0,0v-0.1h0.4v0.5c0,0-0.1,0-0.1,0.1
	c0,0-0.1,0-0.1,0c0,0-0.1,0-0.1,0s-0.1,0-0.1,0c-0.1,0-0.2,0-0.3,0S30,46.1,29.9,46c-0.1-0.1-0.1-0.1-0.1-0.2c0-0.1,0-0.2,0-0.3
	c0-0.1,0-0.2,0-0.3c0-0.1,0.1-0.1,0.1-0.2C30,45,30,45,30.1,45c0.1,0,0.2,0,0.3,0c0.1,0,0.2,0,0.3,0c0.1,0,0.1,0.1,0.2,0.1l-0.1,0.1
	c0,0,0,0-0.1,0c0,0,0,0,0,0c0,0,0,0-0.1,0c0,0,0,0-0.1,0c0,0-0.1,0-0.1,0c0,0-0.1,0-0.1,0c-0.1,0-0.1,0-0.2,0
	c-0.1,0-0.1,0.1-0.1,0.1c0,0-0.1,0.1-0.1,0.1c0,0.1,0,0.1,0,0.2c0,0.1,0,0.1,0,0.2c0,0.1,0,0.1,0.1,0.1c0,0,0.1,0.1,0.1,0.1
	C30.3,46,30.3,46,30.4,46z"/>
<path class="st0" d="M32.3,45.2c0,0,0-0.1-0.1-0.1S32.1,45,32.1,45s-0.1,0-0.2,0h-0.4v1.3h0.2v-0.4h0.2c0.1,0,0.2,0,0.2,0
	c0.1,0,0.1,0,0.2-0.1c0,0,0.1-0.1,0.1-0.1s0-0.1,0-0.2C32.3,45.3,32.3,45.2,32.3,45.2z M32.1,45.4C32.1,45.5,32.1,45.5,32.1,45.4
	C32,45.5,32,45.5,32,45.5c0,0-0.1,0-0.1,0h-0.2v-0.5h0.2c0,0,0.1,0,0.1,0c0,0,0.1,0,0.1,0s0,0,0,0.1C32.1,45.3,32.1,45.3,32.1,45.4
	C32.1,45.4,32.1,45.4,32.1,45.4z"/>
<path class="st0" d="M33,44.9h-0.2l-0.5,1.3h0.2c0,0,0,0,0.1,0c0,0,0,0,0,0l0.1-0.3h0.5l0.1,0.3c0,0,0,0,0,0c0,0,0,0,0.1,0h0.2
	L33,44.9z M32.7,45.7l0.2-0.4c0,0,0,0,0-0.1c0,0,0-0.1,0-0.1c0,0,0,0.1,0,0.1c0,0,0,0,0,0.1l0.2,0.4H32.7z"/>
<path class="st0" d="M34.3,45.7C34.3,45.7,34.3,45.7,34.3,45.7c0-0.1,0-0.1,0-0.1s0.1-0.1,0.1-0.1c0,0,0-0.1,0.1-0.1
	c0,0,0-0.1,0-0.1c0-0.1,0-0.1,0-0.1c0,0,0-0.1-0.1-0.1s-0.1-0.1-0.2-0.1c-0.1,0-0.1,0-0.2,0h-0.4v1.3h0.2v-0.5H34c0,0,0,0,0.1,0
	c0,0,0,0,0,0l0.3,0.4c0,0,0,0,0,0c0,0,0,0,0.1,0h0.2L34.3,45.7z M34.1,45.5c0,0-0.1,0-0.1,0h-0.1v-0.4H34c0.1,0,0.2,0,0.2,0.1
	c0,0,0.1,0.1,0.1,0.1c0,0,0,0.1,0,0.1C34.3,45.4,34.2,45.4,34.1,45.5C34.2,45.5,34.2,45.5,34.1,45.5z"/>
<path class="st0" d="M35,45.5L35,45.5c0.1,0,0.1,0,0.1,0c0,0,0,0,0,0l0.4-0.4c0,0,0,0,0,0c0,0,0,0,0.1,0h0.2l-0.4,0.5c0,0,0,0,0,0
	c0,0,0,0,0,0c0,0,0,0,0.1,0c0,0,0,0,0,0l0.4,0.6h-0.2c0,0,0,0-0.1,0s0,0,0,0l-0.4-0.5c0,0,0,0,0,0s0,0-0.1,0H35v0.6h-0.2v-1.3H35
	V45.5z"/>
<path class="st0" d="M37,46c0.1,0,0.1,0,0.1,0c0,0,0.1,0,0.1,0v-0.2H37c0,0,0,0,0,0c0,0,0,0,0,0v-0.1h0.4v0.5c0,0-0.1,0-0.1,0.1
	c0,0-0.1,0-0.1,0c0,0-0.1,0-0.1,0c0,0-0.1,0-0.1,0c-0.1,0-0.2,0-0.3,0s-0.1-0.1-0.2-0.1c-0.1-0.1-0.1-0.1-0.1-0.2c0-0.1,0-0.2,0-0.3
	c0-0.1,0-0.2,0-0.3c0-0.1,0.1-0.1,0.1-0.2c0.1-0.1,0.1-0.1,0.2-0.1c0.1,0,0.2,0,0.3,0c0.1,0,0.2,0,0.3,0c0.1,0,0.1,0.1,0.2,0.1
	l-0.1,0.1c0,0,0,0-0.1,0c0,0,0,0,0,0c0,0,0,0-0.1,0c0,0,0,0-0.1,0c0,0-0.1,0-0.1,0c0,0-0.1,0-0.1,0c-0.1,0-0.1,0-0.2,0
	c-0.1,0-0.1,0.1-0.1,0.1c0,0-0.1,0.1-0.1,0.1c0,0.1,0,0.1,0,0.2c0,0.1,0,0.1,0,0.2c0,0.1,0.1,0.1,0.1,0.1c0,0,0.1,0.1,0.1,0.1
	C36.8,46,36.9,46,37,46z"/>
<path class="st0" d="M38.3,45.7C38.3,45.7,38.3,45.7,38.3,45.7c0-0.1,0-0.1,0-0.1c0,0,0.1-0.1,0.1-0.1c0,0,0-0.1,0.1-0.1
	c0,0,0-0.1,0-0.1c0-0.1,0-0.1,0-0.1c0,0,0-0.1-0.1-0.1s-0.1-0.1-0.2-0.1c-0.1,0-0.1,0-0.2,0h-0.4v1.3h0.2v-0.5H38c0,0,0,0,0.1,0
	c0,0,0,0,0,0l0.3,0.4c0,0,0,0,0,0c0,0,0,0,0.1,0h0.2L38.3,45.7z M38.2,45.5c0,0-0.1,0-0.1,0h-0.1v-0.4H38c0.1,0,0.2,0,0.2,0.1
	c0,0,0.1,0.1,0.1,0.1c0,0,0,0.1,0,0.1C38.3,45.4,38.3,45.4,38.2,45.5C38.2,45.5,38.2,45.5,38.2,45.5z"/>
<path class="st0" d="M39.4,44.9h-0.2l-0.5,1.3h0.2c0,0,0,0,0.1,0c0,0,0,0,0,0l0.1-0.3h0.5l0.1,0.3c0,0,0,0,0,0c0,0,0,0,0.1,0h0.2
	L39.4,44.9z M39.1,45.7l0.2-0.4c0,0,0,0,0-0.1c0,0,0-0.1,0-0.1c0,0,0,0.1,0,0.1c0,0,0,0,0,0.1l0.2,0.4H39.1z"/>
<path class="st0" d="M40.9,45.2c0,0,0-0.1-0.1-0.1c0,0-0.1-0.1-0.2-0.1s-0.1,0-0.2,0h-0.4v1.3h0.2v-0.4h0.2c0.1,0,0.2,0,0.2,0
	c0.1,0,0.1,0,0.2-0.1s0.1-0.1,0.1-0.1s0-0.1,0-0.2C41,45.3,41,45.2,40.9,45.2z M40.7,45.4C40.7,45.5,40.7,45.5,40.7,45.4
	c-0.1,0.1-0.1,0.1-0.1,0.1c0,0-0.1,0-0.1,0h-0.2v-0.5h0.2c0,0,0.1,0,0.1,0c0,0,0.1,0,0.1,0c0,0,0,0,0,0.1
	C40.7,45.3,40.7,45.3,40.7,45.4C40.7,45.4,40.7,45.4,40.7,45.4z"/>
<polygon class="st0" points="42.2,46.2 42,46.2 42,45.6 41.4,45.6 41.4,46.2 41.2,46.2 41.2,44.9 41.4,44.9 41.4,45.5 42,45.5 
	42,44.9 42.2,44.9 "/>
<rect x="42.5" y="44.9" class="st0" width="0.2" height="1.3"/>
<path class="st0" d="M43.9,45.9C43.9,45.9,43.9,45.9,43.9,45.9L44,46c-0.1,0.1-0.1,0.1-0.2,0.1c-0.1,0-0.2,0.1-0.3,0.1
	c-0.1,0-0.2,0-0.3,0c-0.1,0-0.1-0.1-0.2-0.1C43.1,46,43,45.9,43,45.8c0-0.1,0-0.2,0-0.3c0-0.1,0-0.2,0-0.3c0-0.1,0.1-0.1,0.1-0.2
	c0.1-0.1,0.1-0.1,0.2-0.1s0.2,0,0.3,0c0.1,0,0.2,0,0.2,0c0.1,0,0.1,0.1,0.2,0.1L44,45.2c0,0,0,0,0,0c0,0,0,0,0,0s0,0,0,0
	c0,0,0,0-0.1,0c0,0,0,0-0.1,0s-0.1,0-0.1,0c-0.1,0-0.1,0-0.2,0c0,0-0.1,0.1-0.1,0.1c0,0-0.1,0.1-0.1,0.1s0,0.1,0,0.2
	c0,0.1,0,0.1,0,0.2s0,0.1,0.1,0.1s0.1,0.1,0.1,0.1c0,0,0.1,0,0.2,0c0,0,0.1,0,0.1,0c0,0,0.1,0,0.1,0S43.8,46,43.9,45.9
	C43.8,45.9,43.9,45.9,43.9,45.9C43.9,45.9,43.9,45.9,43.9,45.9C43.9,45.9,43.9,45.9,43.9,45.9z"/>
<path class="st0" d="M44.9,45.2C44.9,45.2,44.9,45.2,44.9,45.2C44.9,45.2,44.9,45.2,44.9,45.2C44.8,45.2,44.8,45.2,44.9,45.2
	c-0.1,0-0.1,0-0.1,0c0,0,0,0-0.1,0c0,0-0.1,0-0.1,0c0,0-0.1,0-0.1,0c0,0,0,0-0.1,0c0,0,0,0,0,0.1s0,0,0,0.1c0,0,0,0.1,0,0.1
	s0,0,0.1,0.1c0,0,0.1,0,0.1,0c0,0,0.1,0,0.1,0c0,0,0.1,0,0.1,0s0.1,0,0.1,0.1s0,0.1,0.1,0.1s0,0.1,0,0.1c0,0.1,0,0.1,0,0.2
	c0,0.1,0,0.1-0.1,0.1s-0.1,0.1-0.1,0.1s-0.1,0-0.2,0c0,0-0.1,0-0.1,0s-0.1,0-0.1,0c0,0-0.1,0-0.1-0.1s-0.1,0-0.1-0.1l0.1-0.1
	c0,0,0,0,0,0c0,0,0,0,0,0c0,0,0,0,0,0c0,0,0,0,0.1,0s0.1,0,0.1,0s0.1,0,0.1,0c0.1,0,0.1,0,0.2,0c0,0,0.1-0.1,0.1-0.1
	c0,0,0-0.1,0-0.1c0,0,0,0-0.1-0.1c0,0-0.1,0-0.1,0s-0.1,0-0.1,0c0,0-0.1,0-0.1,0c0,0-0.1,0-0.1-0.1s0-0.1-0.1-0.1c0,0,0-0.1,0-0.1
	c0,0,0-0.1,0-0.1c0,0,0-0.1,0.1-0.1c0,0,0.1-0.1,0.1-0.1c0.1,0,0.1,0,0.2,0c0.1,0,0.1,0,0.2,0S44.9,45,45,45L44.9,45.2z"/>
<g>
	<g>
		<g>
			<path class="st1" d="M40.9,0h-22v32.4h0.5l0,0h25.1l0,0h0.6l0.1-25.3L40.9,0z M38.7,14.4l-9.3,16.2l0,0l-1-1.7l8.3-14.5h-2.2
				L27.3,27l-1-1.8l2.1-3.5l-1.1-1.9L21,30.6l0,0v-0.1V27l4.2-7.3h-2.1l-2.2,3.9L20.7,1.8h17.9v5.4H43v14.7L38.7,14.4z M25.2,7.2
				c-2,0-3.6,1.7-3.6,3.6s1.7,3.6,3.6,3.6c2,0,3.6-1.7,3.6-3.6S27.3,7.2,25.2,7.2z"/>
		</g>
	</g>
</g>
</svg>
