<?xml version="1.0" encoding="utf-8"?>
<!-- Generator: Adobe Illustrator 24.0.2, SVG Export Plug-In . SVG Version: 6.00 Build 0)  -->
<svg version="1.1" id="レイヤー_1" xmlns="http://www.w3.org/2000/svg" xmlns:xlink="http://www.w3.org/1999/xlink" x="0px"
	 y="0px" viewBox="0 0 60 50" style="enable-background:new 0 0 60 50;" xml:space="preserve">
<style type="text/css">
	.st0{fill-rule:evenodd;clip-rule:evenodd;}
</style>
<g>
	<g>
		<g>
			<path class="st0" d="M41.1,0H7.8v50h44.5V11.1L41.1,0z M41.1,4.2l7,7h-7V4.2z M49.4,32.8c-3.9-6.8-7.6-13.3-7.6-13.3L25.9,47
				l-1.8-3l14.2-24.5h-3.4L22.3,40.9l-1.8-3L24,32l-1.8-3l-3.4,5.9l0,0l-7,12.1l-1.5-2.6v-0.9l8.4-14.6h-3.4l-4.9,8.6V2.8h27.8V14
				h11.1V32.8z M18.8,11.1c-3,0-5.5,2.5-5.5,5.5s2.5,5.5,5.5,5.5s5.5-2.5,5.5-5.5S21.9,11.1,18.8,11.1z"/>
		</g>
	</g>
</g>
</svg>
