<?xml version="1.0" encoding="utf-8"?>
<!-- Generator: Adobe Illustrator 24.0.2, SVG Export Plug-In . SVG Version: 6.00 Build 0)  -->
<svg version="1.1" id="レイヤー_1" xmlns="http://www.w3.org/2000/svg" xmlns:xlink="http://www.w3.org/1999/xlink" x="0px"
	 y="0px" viewBox="0 0 120 30" style="enable-background:new 0 0 120 30;" xml:space="preserve">
<style type="text/css">
	.st0{fill-rule:evenodd;clip-rule:evenodd;fill:#231815;}
</style>
<title>logo_typo</title>
<g>
	<g>
		<g>
			<path class="st0" d="M15.3,21.9c0,0.8-0.1,1-0.4,1.4c-0.3,0.4-0.8,0.7-1.4,0.7c-0.3,0-0.6,0-0.8-0.1c-0.2-0.1-0.4-0.2-0.6-0.4
				c-0.2-0.2-0.3-0.4-0.4-0.7c-0.1-0.3,0-0.5,0-0.9H7.2c0,1,0.1,1.6,0.5,2.3C8,24.9,8.4,25.5,9,25.9c0.6,0.5,1.2,0.8,2,1
				c0.8,0.2,1.6,0.3,2.5,0.3c0.9,0,1.7-0.1,2.5-0.4c0.8-0.3,1.4-0.7,2-1.2c0.6-0.5,1-1.1,1.3-1.8c0.3-0.7,0.5-1.5,0.5-2.4V9.3
				l-4.5,0V21.9z M36.8,20.6L34.2,9.3h-3.7L28,20.6L25.9,9.3h-4.4l3.9,18H30L32.4,17l2.4,10.3h4.5l3.9-18h-4.3L36.8,20.6z M56.6,11
				c-0.6-0.5-1.4-1-2.2-1.3c-0.9-0.3-1.9-0.5-3-0.5h-7.3v18l4.5,0V21h2.7c1.1,0,2.2,0.1,3.1-0.2c0.9-0.3,1.6-0.7,2.2-1.2
				c0.6-0.5,1.1-1.1,1.4-1.8c0.3-0.7,0.5-1.5,0.5-2.4c0-0.9-0.2-1.7-0.5-2.4C57.7,12.2,57.2,11.5,56.6,11z M53.9,16.4
				c-0.1,0.3-0.3,0.6-0.5,0.8c-0.2,0.2-0.5,0.4-0.8,0.5c-0.3,0.1-0.7,0.2-1.2,0.2h-2.9v-5.2h2.9c0.5,0,0.9,0.1,1.2,0.2
				c0.3,0.2,0.6,0.4,0.8,0.6c0.2,0.3,0.4,0.6,0.5,0.9C54,14.7,54,15,54,15.4C54,15.8,54,16.1,53.9,16.4z M68.1,17.7v2.9h3.1v2.7
				c-0.1,0.1-0.2,0.2-0.4,0.3c-0.1,0.1-0.3,0.2-0.5,0.2c-0.2,0.1-0.5,0.1-0.7,0.2C69.3,24,69,24,68.6,24c-1.3,0-2.3-0.4-2.9-1.3
				c-0.6-0.9-0.9-2.2-0.9-3.9v-1c0-0.9,0.1-1.7,0.2-2.3c0.2-0.7,0.4-1.2,0.7-1.6c0.3-0.4,0.7-0.8,1.1-1c0.4-0.2,0.9-0.3,1.4-0.3
				c0.5,0,0.9,0.1,1.3,0.2c0.4,0.1,0.7,0.3,0.9,0.5c0.2,0.2,0.4,0.5,0.6,0.9s0.2,0.7,0.3,1.2h4.2c-0.1-0.9-0.3-1.7-0.6-2.4
				c-0.3-0.7-0.8-1.4-1.4-1.9c-0.6-0.5-1.4-0.9-2.3-1.2c-0.9-0.3-2-0.4-3.2-0.4c-1.1,0-2.2,0.2-3.1,0.6c-1,0.4-1.8,0.9-2.5,1.7
				c-0.7,0.7-1.2,1.6-1.6,2.7c-0.4,1.1-0.6,2.3-0.6,3.6v1c0,1.4,0.2,2.6,0.6,3.6c0.4,1.1,0.9,1.9,1.6,2.7c0.7,0.7,1.5,1.3,2.5,1.7
				c1,0.4,2.1,0.6,3.3,0.6c1,0,1.9-0.1,2.7-0.2c0.8-0.2,1.5-0.4,2.1-0.6s1.1-0.5,1.5-0.8c0.4-0.3,0.7-0.5,1-0.8v-7.2H68.1z
				 M2.7,21.9c-1.5,0-2.7,1.2-2.7,2.7c0,1.5,1.2,2.7,2.7,2.7c1.5,0,2.7-1.2,2.7-2.7C5.4,23.1,4.2,21.9,2.7,21.9z"/>
		</g>
	</g>
</g>
</svg>
