<?xml version="1.0" encoding="utf-8"?>
<!-- Generator: Adobe Illustrator 24.0.2, SVG Export Plug-In . SVG Version: 6.00 Build 0)  -->
<svg version="1.1" id="レイヤー_1" xmlns="http://www.w3.org/2000/svg" xmlns:xlink="http://www.w3.org/1999/xlink" x="0px"
	 y="0px" viewBox="0 0 120 30" style="enable-background:new 0 0 120 30;" xml:space="preserve">
<style type="text/css">
	.st0{fill:#1D1D1B;}
</style>
<title>logo_typo</title>
<title>logo_typo</title>
<g>
	<g>
		<g>
			<path class="st0" d="M11.1,20.6c0,0.6-0.1,1.1-0.2,1.5c-0.1,0.4-0.3,0.8-0.5,1c-0.2,0.3-0.5,0.4-0.8,0.5
				c-0.3,0.1-0.7,0.2-1.1,0.2c-0.3,0-0.6,0-0.8-0.1c-0.2,0-0.4-0.1-0.6-0.1c-0.3,0-0.5,0.1-0.7,0.2c-0.2,0.1-0.3,0.3-0.3,0.5L6,26.9
				c0.5,0.1,1,0.2,1.5,0.2s1,0.1,1.5,0.1c1.1,0,2.1-0.2,2.9-0.5c0.8-0.3,1.5-0.8,2-1.4c0.5-0.6,1-1.3,1.2-2.1
				c0.3-0.8,0.4-1.7,0.4-2.7V9.2h-4.5V20.6z M21.2,9.5c-0.2-0.2-0.5-0.2-0.9-0.2h-3.5l3.4,10.9l2.2-7.8l-0.6-2.2
				C21.7,9.8,21.5,9.6,21.2,9.5z M3.1,24.1c-0.2-0.2-0.4-0.3-0.6-0.4c-0.2-0.1-0.5-0.1-0.7-0.1c-0.3,0-0.5,0-0.7,0.1
				c-0.2,0.1-0.4,0.2-0.6,0.4c-0.2,0.2-0.3,0.4-0.4,0.6C0,24.9,0,25.1,0,25.4c0,0.3,0,0.5,0.1,0.7c0.1,0.2,0.2,0.4,0.4,0.6
				c0.2,0.2,0.3,0.3,0.6,0.4c0.2,0.1,0.5,0.1,0.7,0.1c0.3,0,0.5,0,0.7-0.1c0.2-0.1,0.4-0.2,0.6-0.4c0.2-0.2,0.3-0.4,0.4-0.6
				c0.1-0.2,0.1-0.5,0.1-0.7c0-0.3,0-0.5-0.1-0.7C3.4,24.5,3.2,24.3,3.1,24.1z M57,10.9c-0.6-0.5-1.4-0.9-2.4-1.2
				c-1-0.3-2.1-0.5-3.5-0.5h-6.7v18h4.4v-6h2.3c1.3,0,2.5-0.1,3.4-0.5c1-0.3,1.8-0.7,2.4-1.3c0.6-0.5,1.1-1.2,1.4-1.9
				c0.3-0.7,0.5-1.6,0.5-2.5c0-0.8-0.1-1.6-0.4-2.3C58,12,57.6,11.4,57,10.9z M53.6,17.3c-0.5,0.5-1.3,0.8-2.5,0.8h-2.3v-5.7h2.3
				c0.6,0,1,0.1,1.4,0.2c0.4,0.1,0.7,0.3,1,0.6c0.3,0.2,0.5,0.5,0.6,0.9c0.1,0.3,0.2,0.7,0.2,1.1C54.4,16,54.1,16.7,53.6,17.3z
				 M70,20.1c0,0.2,0.1,0.4,0.2,0.5c0.2,0.1,0.4,0.2,0.6,0.2h1.8v2.7c-0.4,0.2-0.8,0.3-1.3,0.4c-0.5,0.1-1,0.1-1.6,0.1
				c-0.8,0-1.5-0.1-2.2-0.4c-0.7-0.3-1.2-0.6-1.7-1.1c-0.5-0.5-0.9-1.1-1.1-1.8c-0.3-0.7-0.4-1.6-0.4-2.5c0-0.8,0.1-1.6,0.4-2.3
				c0.2-0.7,0.6-1.3,1.1-1.8c0.5-0.5,1-0.9,1.7-1.1c0.6-0.3,1.4-0.4,2.2-0.4c0.4,0,0.8,0,1.2,0.1c0.4,0,0.7,0.1,1,0.2
				c0.3,0.1,0.6,0.2,0.9,0.3c0.3,0.1,0.6,0.3,1,0.5c0.3,0.2,0.5,0.2,0.8,0.2c0.2,0,0.4,0,0.5-0.1c0.2-0.1,0.3-0.2,0.4-0.4l1.3-1.8
				c-0.4-0.3-0.8-0.7-1.3-0.9c-0.5-0.3-1-0.5-1.6-0.7c-0.6-0.2-1.2-0.4-1.9-0.5c-0.7-0.1-1.4-0.2-2.2-0.2c-1.5,0-2.9,0.2-4.1,0.7
				c-1.2,0.4-2.3,1.1-3.1,1.9c-0.9,0.8-1.5,1.7-2,2.8c-0.5,1.1-0.7,2.3-0.7,3.6c0,1.3,0.2,2.5,0.7,3.6c0.5,1.1,1.1,2,2,2.9
				c0.8,0.8,1.9,1.4,3,1.9c1.2,0.5,2.4,0.7,3.8,0.7c0.8,0,1.5,0,2.1-0.1c0.7-0.1,1.3-0.2,1.9-0.3c0.6-0.2,1.1-0.3,1.7-0.6
				c0.5-0.2,1-0.5,1.5-0.9v-7.4H70V20.1z M28.2,9.5c-0.2,0.2-0.4,0.4-0.5,0.6L23,27.2h3.8l5.6-18h-3.3C28.7,9.2,28.4,9.3,28.2,9.5z
				 M39,9.5c-0.2,0.2-0.4,0.4-0.5,0.6l-4.7,17.1h3.8l5.6-18h-3.3C39.5,9.2,39.2,9.3,39,9.5z"/>
		</g>
	</g>
</g>
</svg>
