<?xml version="1.0" encoding="utf-8"?>
<!-- Generator: Adobe Illustrator 24.0.2, SVG Export Plug-In . SVG Version: 6.00 Build 0)  -->
<svg version="1.1" id="レイヤー_1" xmlns="http://www.w3.org/2000/svg" xmlns:xlink="http://www.w3.org/1999/xlink" x="0px"
	 y="0px" viewBox="0 0 64 48" style="enable-background:new 0 0 64 48;" xml:space="preserve">
<style type="text/css">
	.st0{fill:#FFFFFF;}
	.st1{font-family:'Lato-Black';}
	.st2{font-size:9.3961px;}
	.st3{font-size:9.2786px;}
	.st4{font-size:9.3213px;}
	.st5{font-family:'Lato-Bold';}
	.st6{font-size:1.765px;}
	.st7{fill-rule:evenodd;clip-rule:evenodd;fill:#FFFFFF;}
</style>
<text transform="matrix(1 0 0 1 32.3506 42.963)" class="st0 st1 st2">P</text>
<text transform="matrix(1 0 0 1 38.8057 42.9152)" class="st0 st1 st3">G</text>
<text transform="matrix(1 0 0 1 18.9091 42.8985)" class="st0 st1 st4">J</text>
<path class="st0" d="M24.7,36.2c-0.1-0.1-0.2-0.1-0.3-0.1H23l1.3,4.2l0.9-2.9l-0.2-1C24.9,36.3,24.8,36.2,24.7,36.2z"/>
<path class="st0" d="M27.2,36.2c-0.1,0.1-0.2,0.2-0.2,0.2L25.1,43h1.5l2.2-6.9h-1.3C27.4,36.1,27.3,36.1,27.2,36.2z"/>
<path class="st0" d="M30.2,36.2c-0.1,0.1-0.2,0.2-0.2,0.2L28.2,43h1.5l2.2-6.9h-1.3C30.4,36.1,30.3,36.1,30.2,36.2z"/>
<circle class="st0" cx="17" cy="42.2" r="0.7"/>
<text transform="matrix(1 0 0 1 18.8755 46.1977)" class="st0 st5 st6">JONGWOONG PARK GRAPHICS</text>
<g>
	<g>
		<g>
			<path class="st7" d="M40.9,0h-22v32.4h0.5l0,0h25.1l0,0h0.6l0.1-25.3L40.9,0z M38.7,14.4l-9.3,16.2l0,0l-1-1.7l8.3-14.5h-2.2
				L27.3,27l-1-1.8l2.1-3.5l-1.1-1.9L21,30.6l0,0v-0.1V27l4.2-7.3h-2.1l-2.2,3.9L20.7,1.8h17.9v5.4H43v14.7L38.7,14.4z M25.2,7.2
				c-2,0-3.6,1.7-3.6,3.6s1.7,3.6,3.6,3.6c2,0,3.6-1.7,3.6-3.6S27.3,7.2,25.2,7.2z"/>
		</g>
	</g>
</g>
<circle class="st0" cx="27.4" cy="36.6" r="0.5"/>
<circle class="st0" cx="24.6" cy="36.6" r="0.5"/>
<circle class="st0" cx="30.4" cy="36.6" r="0.5"/>
</svg>
