<?xml version="1.0" encoding="utf-8"?>
<!-- Generator: Adobe Illustrator 24.0.2, SVG Export Plug-In . SVG Version: 6.00 Build 0)  -->
<svg version="1.1" id="レイヤー_1" xmlns="http://www.w3.org/2000/svg" xmlns:xlink="http://www.w3.org/1999/xlink" x="0px"
	 y="0px" viewBox="0 0 120 30" style="enable-background:new 0 0 120 30;" xml:space="preserve">
<style type="text/css">
	.st0{fill:#1D1D1B;}
</style>
<title>logo_typo</title>
<title>logo_typo</title>
<g>
	<g>
		<g>
			<path class="st0" d="M11.6,20.6c0,0.6-0.1,1.1-0.2,1.5c-0.1,0.4-0.3,0.8-0.5,1c-0.2,0.3-0.5,0.4-0.8,0.5S9.4,23.8,9,23.8
				c-0.3,0-0.6,0-0.8-0.1c-0.2,0-0.4-0.1-0.6-0.1c-0.3,0-0.5,0.1-0.7,0.2s-0.3,0.3-0.3,0.5l-0.1,2.6C7,27,7.5,27.1,8,27.1
				s1,0.1,1.5,0.1c1.1,0,2.1-0.2,2.9-0.5c0.8-0.3,1.5-0.8,2-1.4s1-1.3,1.2-2.1c0.3-0.8,0.4-1.7,0.4-2.7V9.2h-4.5v11.4H11.6z
				 M21.4,9.5c-0.2-0.2-0.5-0.2-0.9-0.2H17l3.4,10.9l2.2-7.8L22,10.2C21.9,9.8,21.7,9.6,21.4,9.5z M3.1,24.1
				c-0.2-0.2-0.4-0.3-0.6-0.4c-0.2-0.1-0.5-0.1-0.7-0.1c-0.3,0-0.5,0-0.7,0.1s-0.4,0.2-0.6,0.4c-0.2,0.2-0.3,0.4-0.4,0.6
				C0,24.9,0,25.1,0,25.4s0,0.5,0.1,0.7s0.2,0.4,0.4,0.6s0.3,0.3,0.6,0.4c0.2,0.1,0.5,0.1,0.7,0.1c0.3,0,0.5,0,0.7-0.1
				s0.4-0.2,0.6-0.4c0.2-0.2,0.3-0.4,0.4-0.6c0.1-0.2,0.1-0.5,0.1-0.7c0-0.3,0-0.5-0.1-0.7C3.4,24.5,3.2,24.3,3.1,24.1z M55.2,10.9
				c-0.6-0.5-1.4-0.9-2.4-1.2s-2.1-0.5-3.5-0.5h-6.7v18H47v-6h2.3c1.3,0,2.5-0.1,3.4-0.5c1-0.3,1.8-0.7,2.4-1.3
				c0.6-0.5,1.1-1.2,1.4-1.9c0.3-0.7,0.5-1.6,0.5-2.5c0-0.8-0.1-1.6-0.4-2.3C56.2,12,55.8,11.4,55.2,10.9z M51.8,17.3
				c-0.5,0.5-1.3,0.8-2.5,0.8H47v-5.7h2.3c0.6,0,1,0.1,1.4,0.2c0.4,0.1,0.7,0.3,1,0.6c0.3,0.2,0.5,0.5,0.6,0.9
				c0.1,0.3,0.2,0.7,0.2,1.1C52.6,16,52.3,16.7,51.8,17.3z M68.2,20.1c0,0.2,0.1,0.4,0.2,0.5c0.2,0.1,0.4,0.2,0.6,0.2h1.8v2.7
				c-0.4,0.2-0.8,0.3-1.3,0.4s-1,0.1-1.6,0.1c-0.8,0-1.5-0.1-2.2-0.4S64.5,23,64,22.5c-0.5-0.5-0.9-1.1-1.1-1.8
				c-0.3-0.7-0.4-1.6-0.4-2.5c0-0.8,0.1-1.6,0.4-2.3c0.2-0.7,0.6-1.3,1.1-1.8c0.5-0.5,1-0.9,1.7-1.1c0.6-0.3,1.4-0.4,2.2-0.4
				c0.4,0,0.8,0,1.2,0.1c0.4,0,0.7,0.1,1,0.2c0.3,0.1,0.6,0.2,0.9,0.3s0.6,0.3,1,0.5c0.3,0.2,0.5,0.2,0.8,0.2c0.2,0,0.4,0,0.5-0.1
				c0.2-0.1,0.3-0.2,0.4-0.4l1.3-1.8c-0.4-0.3-0.8-0.7-1.3-0.9c-0.5-0.3-1-0.5-1.6-0.7s-1.2-0.4-1.9-0.5c-0.7-0.1-1.4-0.2-2.2-0.2
				c-1.5,0-2.9,0.2-4.1,0.7c-1.2,0.4-2.3,1.1-3.1,1.9c-0.9,0.8-1.5,1.7-2,2.8s-0.7,2.3-0.7,3.6c0,1.3,0.2,2.5,0.7,3.6s1.1,2,2,2.9
				c0.8,0.8,1.9,1.4,3,1.9c1.2,0.5,2.4,0.7,3.8,0.7c0.8,0,1.5,0,2.1-0.1c0.7-0.1,1.3-0.2,1.9-0.3c0.6-0.2,1.1-0.3,1.7-0.6
				c0.5-0.2,1-0.5,1.5-0.9v-7.4h-6.6V20.1z M28.2,9.5c-0.2,0.2-0.4,0.4-0.5,0.6L23,27.2h3.8l5.6-18h-3.3C28.7,9.2,28.4,9.3,28.2,9.5
				z M36.8,9.5c-0.2,0.2-0.4,0.4-0.5,0.6l-4.7,17.1h3.8l5.6-18h-3.3C37.3,9.2,37,9.3,36.8,9.5z"/>
		</g>
	</g>
</g>
</svg>
