<?xml version="1.0" encoding="utf-8"?>
<!-- Generator: Adobe Illustrator 24.0.2, SVG Export Plug-In . SVG Version: 6.00 Build 0)  -->
<svg version="1.1" id="レイヤー_1" xmlns="http://www.w3.org/2000/svg" xmlns:xlink="http://www.w3.org/1999/xlink" x="0px"
	 y="0px" viewBox="0 0 42.7 48" style="enable-background:new 0 0 42.7 48;" xml:space="preserve">
<style type="text/css">
	.st0{fill-rule:evenodd;clip-rule:evenodd;}
</style>
<g>
	<g>
		<g>
			<path class="st0" d="M32,0H0v48h42.7V10.7L32,0z M32,4l6.7,6.7H32V4z M40,31.5c-3.7-6.5-7.3-12.8-7.3-12.8L17.4,45.1l-1.7-2.9
				l13.6-23.5H26L14,39.3l-1.7-2.9l3.3-5.7l-1.7-2.9l-3.3,5.7l0,0L3.9,45.1l-1.4-2.5v-0.9l8.1-14H7.3L2.6,36V2.7h26.7v10.7H40V31.5z
				 M10.6,10.7c-2.9,0-5.3,2.4-5.3,5.3s2.4,5.3,5.3,5.3s5.3-2.4,5.3-5.3S13.6,10.7,10.6,10.7z"/>
		</g>
	</g>
</g>
</svg>
