<?xml version="1.0" encoding="utf-8"?>
<!-- Generator: Adobe Illustrator 24.0.2, SVG Export Plug-In . SVG Version: 6.00 Build 0)  -->
<svg version="1.1" id="レイヤー_1" xmlns="http://www.w3.org/2000/svg" xmlns:xlink="http://www.w3.org/1999/xlink" x="0px"
	 y="0px" viewBox="0 0 64 48" style="enable-background:new 0 0 64 48;" xml:space="preserve">
<style type="text/css">
	.st0{fill-rule:evenodd;clip-rule:evenodd;}
</style>
<g>
	<g>
		<g>
			<path class="st0" d="M42.7,0h-32v48h42.7V10.7L42.7,0z M42.7,4l6.7,6.7h-6.7V4z M50.7,31.5c-3.7-6.5-7.3-12.8-7.3-12.8L28.1,45.1
				l-1.7-2.9L40,18.7h-3.3L24.7,39.3l-1.7-2.9l3.3-5.7l-1.7-2.9l-3.3,5.7l0,0l-6.7,11.6l-1.4-2.5v-0.9l8.1-14l-3.3,0L13.3,36V2.7H40
				v10.7h10.7V31.5z M21.3,10.7c-2.9,0-5.3,2.4-5.3,5.3s2.4,5.3,5.3,5.3c2.9,0,5.3-2.4,5.3-5.3S24.3,10.7,21.3,10.7z"/>
		</g>
	</g>
</g>
</svg>
