<?xml version="1.0" encoding="utf-8"?>
<!-- Generator: Adobe Illustrator 24.0.2, SVG Export Plug-In . SVG Version: 6.00 Build 0)  -->
<svg version="1.1" id="レイヤー_1" xmlns="http://www.w3.org/2000/svg" xmlns:xlink="http://www.w3.org/1999/xlink" x="0px"
	 y="0px" viewBox="0 0 120 30" style="enable-background:new 0 0 120 30;" xml:space="preserve">
<style type="text/css">
	.st0{fill:#1D1D1B;}
	.st1{font-family:'Lato-Black';}
	.st2{font-size:24.6954px;}
	.st3{font-size:24.3867px;}
	.st4{font-size:24.4987px;}
</style>
<title>logo_typo</title>
<title>logo_typo</title>
<text transform="matrix(1 0 0 1 42.189 27.0763)" class="st0 st1 st2">P</text>
<text transform="matrix(1 0 0 1 59.1548 26.9503)" class="st0 st1 st3">G</text>
<text transform="matrix(1 0 0 1 6.8613 26.9064)" class="st0 st1 st4">J</text>
<path class="st0" d="M22.2,9.2C21.9,9,21.6,9,21.3,9h-3.7l3.4,11l2.4-7.6l-0.5-2.6C22.7,9.6,22.4,9.4,22.2,9.2z"/>
<path class="st0" d="M28.7,9.3c-0.3,0.3-0.5,0.5-0.5,0.5l-5,17.3h3.9L32.9,9h-3.4C29.2,9,28.9,9,28.7,9.3z"/>
<path class="st0" d="M36.5,9.3C36.3,9.6,36,9.8,36,9.8l-4.7,17.3h3.9L41,9h-3.4C37.1,9,36.8,9,36.5,9.3z"/>
<circle class="st0" cx="1.8" cy="25.1" r="1.8"/>
<circle class="st0" cx="29.3" cy="10.2" r="1.2"/>
<circle class="st0" cx="21.7" cy="10.2" r="1.2"/>
<circle class="st0" cx="37.1" cy="10.2" r="1.2"/>
</svg>
