<?xml version="1.0" encoding="utf-8"?>
<!-- Generator: Adobe Illustrator 24.0.2, SVG Export Plug-In . SVG Version: 6.00 Build 0)  -->
<svg version="1.1" id="レイヤー_1" xmlns="http://www.w3.org/2000/svg" xmlns:xlink="http://www.w3.org/1999/xlink" x="0px"
	 y="0px" viewBox="0 0 120 30" style="enable-background:new 0 0 120 30;" xml:space="preserve">
<style type="text/css">
	.st0{fill:#1D1D1B;}
	.st1{enable-background:new    ;}
</style>
<title>logo_typo</title>
<title>logo_typo</title>
<path class="st0" d="M21.9,9.5c0-0.3-0.5-0.3-0.8-0.3h-3.6l3.3,11l2.3-7.7L22.6,10C22.4,9.8,22.1,9.5,21.9,9.5z"/>
<path class="st0" d="M28.5,9.5C28.3,9.8,28,10,28,10l-4.8,17.1H27l5.6-17.9h-3.3C29,9.3,28.8,9.3,28.5,9.5z"/>
<path class="st0" d="M36.2,9.5C36,9.8,35.7,10,35.7,10l-4.6,17.1H35l5.6-17.9h-3.3C36.8,9.3,36.5,9.3,36.2,9.5z"/>
<g class="st1">
	<path class="st0" d="M68.4,24c0.6,0,1.1,0,1.5-0.1c0.4-0.1,0.8-0.2,1.2-0.4v-2.7h-1.7c-0.3,0-0.5-0.1-0.6-0.2
		c-0.1-0.1-0.2-0.3-0.2-0.5v-2.2h6.2v7.4c-0.4,0.3-0.9,0.6-1.4,0.8c-0.5,0.2-1,0.4-1.6,0.6c-0.6,0.2-1.1,0.3-1.8,0.3
		c-0.6,0.1-1.3,0.1-2,0.1c-1.3,0-2.5-0.2-3.6-0.7c-1.1-0.5-2-1.1-2.8-1.9c-0.8-0.8-1.4-1.7-1.9-2.8c-0.5-1.1-0.7-2.3-0.7-3.6
		c0-1.3,0.2-2.5,0.7-3.6c0.4-1.1,1.1-2,1.9-2.8c0.8-0.8,1.8-1.4,2.9-1.9c1.1-0.4,2.4-0.7,3.8-0.7c0.7,0,1.4,0.1,2.1,0.2
		c0.6,0.1,1.2,0.3,1.8,0.5c0.5,0.2,1,0.5,1.5,0.7c0.4,0.3,0.9,0.6,1.2,0.9l-1.2,1.8c-0.1,0.2-0.2,0.3-0.4,0.4
		c-0.2,0.1-0.3,0.1-0.5,0.1c-0.2,0-0.5-0.1-0.7-0.2c-0.3-0.2-0.6-0.4-0.9-0.5c-0.3-0.1-0.6-0.3-0.9-0.3c-0.3-0.1-0.6-0.2-0.9-0.2
		c-0.3,0-0.7-0.1-1.1-0.1c-0.8,0-1.4,0.1-2.1,0.4c-0.6,0.3-1.1,0.7-1.6,1.1c-0.4,0.5-0.8,1.1-1,1.8c-0.2,0.7-0.3,1.5-0.3,2.3
		c0,0.9,0.1,1.8,0.4,2.5c0.3,0.7,0.6,1.3,1.1,1.8c0.5,0.5,1,0.9,1.6,1.1C67,23.9,67.7,24,68.4,24z"/>
</g>
<path class="st0" d="M15.5,20.6c0,1-0.1,1.9-0.4,2.7c-0.2,0.8-0.6,1.5-1.1,2.1c-0.5,0.6-1.1,1-1.9,1.3c-0.8,0.3-1.6,0.5-2.7,0.5
	c-0.5,0-0.9,0-1.4-0.1c-0.4,0-0.9-0.1-1.4-0.2L7,24.4c0-0.2,0.1-0.4,0.2-0.5c0.1-0.1,0.4-0.2,0.6-0.2c0.1,0,0.3,0,0.5,0.1
	c0.2,0,0.4,0.1,0.7,0.1c0.4,0,0.7-0.1,1-0.2c0.3-0.1,0.5-0.3,0.7-0.5c0.2-0.3,0.3-0.6,0.4-1c0.1-0.4,0.1-0.9,0.1-1.5V9.3h4.1V20.6z"
	/>
<path class="st0" d="M47.5,21.2v6h-4.1V9.3h6.3c1.3,0,2.3,0.1,3.2,0.4c0.9,0.3,1.6,0.7,2.2,1.2c0.6,0.5,1,1.1,1.3,1.9
	c0.3,0.7,0.4,1.5,0.4,2.3c0,0.9-0.1,1.7-0.4,2.5c-0.3,0.7-0.7,1.4-1.3,1.9c-0.6,0.5-1.3,0.9-2.2,1.2c-0.9,0.3-2,0.4-3.2,0.4H47.5z
	 M47.5,18h2.2c1.1,0,1.9-0.3,2.3-0.8c0.5-0.5,0.7-1.2,0.7-2.2c0-0.4-0.1-0.8-0.2-1.1c-0.1-0.3-0.3-0.6-0.6-0.9
	c-0.2-0.2-0.6-0.4-0.9-0.6c-0.4-0.1-0.8-0.2-1.4-0.2h-2.2V18z"/>
<circle class="st0" cx="1.9" cy="25.4" r="1.8"/>
</svg>
