<?xml version="1.0" encoding="utf-8"?>
<!-- Generator: Adobe Illustrator 24.0.2, SVG Export Plug-In . SVG Version: 6.00 Build 0)  -->
<svg version="1.1" id="レイヤー_1" xmlns="http://www.w3.org/2000/svg" xmlns:xlink="http://www.w3.org/1999/xlink" x="0px"
	 y="0px" viewBox="0 0 64 48" style="enable-background:new 0 0 64 48;" xml:space="preserve">
<style type="text/css">
	.st0{fill-rule:evenodd;clip-rule:evenodd;fill:#FFFFFF;}
	.st1{fill:#FFFFFF;}
	.st2{font-family:'Lato-Bold';}
	.st3{font-size:1.9501px;}
</style>
<g>
	<g>
		<g>
			<path class="st0" d="M28.2,36.7c-0.1,0.1-0.2,0.1-0.2,0.2l-1.8,6.4h1.4l2.1-6.8h-1.2C28.4,36.6,28.3,36.6,28.2,36.7z M25.5,36.7
				c-0.1-0.1-0.2-0.1-0.3-0.1h-1.3l1.3,4.1l0.8-2.9l-0.2-0.8C25.7,36.8,25.6,36.8,25.5,36.7z M21.7,40.9c0,0.2,0,0.4-0.1,0.6
				c0,0.2-0.1,0.3-0.2,0.4c-0.1,0.1-0.2,0.2-0.3,0.2c-0.1,0-0.3,0.1-0.4,0.1c-0.1,0-0.2,0-0.3,0c-0.1,0-0.2,0-0.2,0
				c-0.1,0-0.2,0-0.3,0.1c-0.1,0-0.1,0.1-0.1,0.2l-0.1,0.9c0.2,0,0.4,0.1,0.6,0.1c0.2,0,0.4,0,0.6,0c0.4,0,0.8-0.1,1.1-0.2
				s0.6-0.3,0.8-0.5c0.2-0.2,0.4-0.5,0.5-0.8c0.1-0.3,0.2-0.6,0.2-1v-4.3h-1.7V40.9z M18.7,42.2c-0.1-0.1-0.1-0.1-0.2-0.1
				c-0.1,0-0.2-0.1-0.3-0.1c-0.1,0-0.2,0-0.3,0.1c-0.1,0-0.2,0.1-0.2,0.1c-0.1,0.1-0.1,0.1-0.1,0.2c0,0.1-0.1,0.2-0.1,0.3
				c0,0.1,0,0.2,0.1,0.3c0,0.1,0.1,0.2,0.1,0.2c0.1,0.1,0.1,0.1,0.2,0.1c0.1,0,0.2,0.1,0.3,0.1c0.1,0,0.2,0,0.3-0.1
				c0.1,0,0.2-0.1,0.2-0.1c0.1-0.1,0.1-0.1,0.1-0.2c0-0.1,0.1-0.2,0.1-0.3c0-0.1,0-0.2-0.1-0.3C18.8,42.4,18.8,42.3,18.7,42.2z
				 M39,37.2c-0.2-0.2-0.5-0.4-0.9-0.5c-0.4-0.1-0.8-0.2-1.3-0.2h-2.5v6.8h1.7v-2.3h0.9c0.5,0,0.9-0.1,1.3-0.2
				c0.4-0.1,0.7-0.3,0.9-0.5c0.2-0.2,0.4-0.4,0.5-0.7c0.1-0.3,0.2-0.6,0.2-0.9c0-0.3-0.1-0.6-0.2-0.9C39.4,37.7,39.2,37.4,39,37.2z
				 M37.7,39.6c-0.2,0.2-0.5,0.3-0.9,0.3h-0.9v-2.1h0.9c0.2,0,0.4,0,0.5,0.1c0.2,0,0.3,0.1,0.4,0.2c0.1,0.1,0.2,0.2,0.2,0.3
				c0,0.1,0.1,0.3,0.1,0.4C38,39.2,37.9,39.4,37.7,39.6z M32.2,36.7c-0.1,0.1-0.2,0.1-0.2,0.2l-1.8,6.4h1.4l2.1-6.8h-1.2
				C32.4,36.6,32.3,36.6,32.2,36.7z M42.3,38.5c0.2-0.2,0.4-0.3,0.6-0.4s0.5-0.2,0.8-0.2c0.2,0,0.3,0,0.4,0c0.1,0,0.3,0,0.4,0.1
				c0.1,0,0.2,0.1,0.3,0.1c0.1,0.1,0.2,0.1,0.4,0.2c0.1,0.1,0.2,0.1,0.3,0.1c0.1,0,0.1,0,0.2-0.1c0.1,0,0.1-0.1,0.2-0.2l0.5-0.7
				c-0.1-0.1-0.3-0.2-0.5-0.4c-0.2-0.1-0.4-0.2-0.6-0.3c-0.2-0.1-0.5-0.1-0.7-0.2c-0.3,0-0.5-0.1-0.8-0.1c-0.6,0-1.1,0.1-1.5,0.3
				c-0.5,0.2-0.8,0.4-1.2,0.7s-0.6,0.7-0.7,1.1c-0.2,0.4-0.3,0.9-0.3,1.4c0,0.5,0.1,0.9,0.3,1.3c0.2,0.4,0.4,0.8,0.8,1.1
				c0.3,0.3,0.7,0.5,1.1,0.7c0.4,0.2,0.9,0.3,1.4,0.3c0.3,0,0.6,0,0.8,0c0.2,0,0.5-0.1,0.7-0.1c0.2-0.1,0.4-0.1,0.6-0.2
				c0.2-0.1,0.4-0.2,0.6-0.3v-2.8h-2.5v0.8c0,0.1,0,0.1,0.1,0.2c0.1,0.1,0.1,0.1,0.2,0.1h0.7v1c-0.2,0.1-0.3,0.1-0.5,0.1
				c-0.2,0-0.4,0.1-0.6,0.1c-0.3,0-0.6,0-0.8-0.1c-0.2-0.1-0.5-0.2-0.6-0.4c-0.2-0.2-0.3-0.4-0.4-0.7c-0.1-0.3-0.2-0.6-0.2-0.9
				c0-0.3,0-0.6,0.1-0.9S42.2,38.6,42.3,38.5z M39.2,0.5H17.5V33h28.9V7.7L39.2,0.5z M39.2,3.2l4.5,4.5h-4.5V3.2z M44.7,21.8
				c-2.5-4.4-5-8.7-5-8.7L29.3,31l-1.1-2l9.2-16h-2.3l-8.1,14l-1.1-2l2.2-3.9l-1.1-2l-2.3,3.9l0,0L20.3,31l-1-1.7v-0.6l5.5-9.5
				l-2.3,0l-3.2,5.6V2.3h18.1v7.2h7.2V21.8z M24.8,7.7c-2,0-3.6,1.6-3.6,3.6s1.6,3.6,3.6,3.6s3.6-1.6,3.6-3.6S26.8,7.7,24.8,7.7z"/>
		</g>
	</g>
</g>
<text transform="matrix(1 0 0 1 17.543 46.679)" class="st1 st2 st3">JONGWOONG PARK GRAPHICS</text>
</svg>
