<?xml version="1.0" encoding="utf-8"?>
<!-- Generator: Adobe Illustrator 24.0.2, SVG Export Plug-In . SVG Version: 6.00 Build 0)  -->
<svg version="1.1" id="レイヤー_1" xmlns="http://www.w3.org/2000/svg" xmlns:xlink="http://www.w3.org/1999/xlink" x="0px"
	 y="0px" viewBox="0 0 120 30" style="enable-background:new 0 0 120 30;" xml:space="preserve">
<style type="text/css">
	.st0{fill:#1D1D1B;}
</style>
<path class="st0" d="M56.8,12.6c-0.3-0.7-0.7-1.3-1.3-1.9s-1.3-0.9-2.2-1.2s-2-0.4-3.3-0.4h-6.3v18h4.2v-6H50c1.2,0,2.3-0.1,3.2-0.4
	s1.7-0.7,2.3-1.3c0.6-0.5,1-1.2,1.3-1.9s0.4-1.6,0.4-2.5C57.2,14.1,57.1,13.3,56.8,12.6z M52.4,17.1c-0.5,0.5-1.3,0.8-2.3,0.8h-2.2
	v-5.7H50c0.5,0,1,0.1,1.4,0.2c0.4,0.1,0.7,0.3,1,0.6c0.3,0.2,0.4,0.5,0.6,0.9c0.1,0.3,0.2,0.7,0.2,1.1
	C53.1,15.9,52.8,16.6,52.4,17.1z"/>
<path class="st0" d="M69,23.9c0.6,0,1.1,0,1.5-0.1s0.9-0.2,1.2-0.4v-2.7H70c-0.3,0-0.5-0.1-0.6-0.2s-0.2-0.3-0.2-0.5v-2.3h6.3v7.5
	c-0.5,0.3-0.9,0.6-1.4,0.9c-0.5,0.2-1,0.4-1.6,0.6S71.4,27,70.7,27c-0.6,0.1-1.3,0.1-2,0.1c-1.3,0-2.5-0.2-3.6-0.7s-2.1-1.1-2.9-1.9
	c-0.8-0.8-1.4-1.8-1.9-2.9s-0.7-2.3-0.7-3.6c0-1.3,0.2-2.5,0.7-3.7c0.4-1.1,1.1-2.1,1.9-2.9c0.8-0.8,1.8-1.4,3-1.9
	C66.3,9.2,67.5,9,69,9c0.7,0,1.4,0.1,2.1,0.2c0.6,0.1,1.2,0.3,1.8,0.5c0.5,0.2,1.1,0.5,1.5,0.8c0.5,0.3,0.9,0.6,1.2,0.9l-1.2,1.8
	c-0.1,0.2-0.3,0.3-0.4,0.4c-0.2,0.1-0.3,0.1-0.5,0.1s-0.5-0.1-0.8-0.2c-0.3-0.2-0.6-0.4-0.9-0.5s-0.6-0.3-0.9-0.3
	c-0.3-0.1-0.6-0.2-1-0.2c-0.3,0-0.7-0.1-1.1-0.1c-0.8,0-1.5,0.1-2.1,0.4c-0.6,0.3-1.1,0.7-1.6,1.2c-0.4,0.5-0.8,1.1-1,1.8
	c-0.2,0.7-0.4,1.5-0.4,2.3c0,0.9,0.1,1.8,0.4,2.5s0.6,1.4,1.1,1.9s1,0.9,1.6,1.1C67.5,23.8,68.2,23.9,69,23.9z"/>
<path class="st0" d="M15.9,20.4c0,1-0.1,1.9-0.4,2.7c-0.2,0.8-0.6,1.5-1.1,2.1s-1.1,1-1.9,1.4c-0.8,0.3-1.7,0.5-2.7,0.5
	c-0.5,0-0.9,0-1.4-0.1c-0.5,0-0.9-0.1-1.4-0.2l0.2-2.4c0-0.2,0.1-0.4,0.3-0.5c0.2-0.1,0.4-0.2,0.6-0.2c0.1,0,0.3,0,0.5,0.1
	c0.2,0,0.4,0.1,0.7,0.1c0.4,0,0.7-0.1,1-0.2s0.5-0.3,0.7-0.5c0.2-0.3,0.3-0.6,0.4-1c0.1-0.4,0.1-0.9,0.1-1.5V9h4.4V20.4z"/>
<path class="st0" d="M21.3,9h-3.7L21,20l2.4-7.6l-0.5-2.6C22.5,9,21.3,9,21.3,9z"/>
<path class="st0" d="M28.1,9.8l-5,17.3H27L32.9,9h-3.4C29.4,9,28.4,9,28.1,9.8z"/>
<path class="st0" d="M36,9.8l-4.7,17.3h3.9L41,9h-3.4C37.6,9,36.2,9,36,9.8z"/>
<circle class="st0" cx="1.8" cy="25" r="1.8"/>
<title>logo_typo</title>
<title>logo_typo</title>
</svg>
