<?xml version="1.0" encoding="utf-8"?>
<!-- Generator: Adobe Illustrator 24.0.2, SVG Export Plug-In . SVG Version: 6.00 Build 0)  -->
<svg version="1.1" id="レイヤー_1" xmlns="http://www.w3.org/2000/svg" xmlns:xlink="http://www.w3.org/1999/xlink" x="0px"
	 y="0px" viewBox="0 0 64 48" style="enable-background:new 0 0 64 48;" xml:space="preserve">
<style type="text/css">
	.st0{fill:#FFFFFF;}
	.st1{font-family:'Lato-Bold';}
	.st2{font-size:1.9501px;}
	.st3{fill-rule:evenodd;clip-rule:evenodd;fill:#FFFFFF;}
</style>
<g>
	<g>
		<g>
			<path class="st0" d="M21.9,40.4c0,0.2,0,0.4-0.1,0.6s-0.1,0.3-0.2,0.4c-0.1,0.1-0.2,0.2-0.3,0.2c-0.1,0-0.3,0.1-0.4,0.1
				s-0.2,0-0.3,0c-0.1,0-0.2,0-0.2,0c-0.1,0-0.2,0-0.3,0.1C20,41.8,20,41.9,20,42v1c0.2,0,0.4,0.1,0.6,0.1s0.4,0,0.6,0
				c0.4,0,0.8-0.1,1.1-0.2c0.3-0.1,0.6-0.3,0.8-0.5c0.2-0.2,0.4-0.5,0.5-0.8s0.2-0.7,0.2-1.1V36H22L21.9,40.4L21.9,40.4z M25.7,36.1
				c0-0.1-0.2-0.1-0.3-0.1H24l1.3,4.3l0.9-3l-0.2-1C25.9,36.2,25.8,36.1,25.7,36.1z M18.6,41.8c-0.1-0.1-0.2-0.1-0.2-0.2
				c-0.1,0-0.2,0-0.3,0c-0.1,0-0.2,0-0.3,0s-0.2,0.1-0.2,0.2c-0.1,0.1-0.1,0.2-0.2,0.2c0,0.1,0,0.2,0,0.3s0,0.2,0,0.3
				s0.1,0.2,0.2,0.2s0.1,0.1,0.2,0.2c0.1,0,0.2,0,0.3,0c0.1,0,0.2,0,0.3,0c0.1,0,0.2-0.1,0.2-0.2c0.1-0.1,0.1-0.2,0.2-0.2
				c0-0.1,0-0.2,0-0.3s0-0.2,0-0.3C18.7,41.9,18.6,41.8,18.6,41.8z M38.9,36.6c-0.2-0.2-0.5-0.4-0.9-0.5S37.1,36,36.6,36H34v7h1.7
				v-2.3h0.9c0.5,0,1,0,1.3-0.2c0.4-0.1,0.7-0.3,0.9-0.5s0.4-0.5,0.5-0.7c0.1-0.3,0.2-0.6,0.2-1c0-0.3,0-0.6-0.2-0.9
				C39.3,37,39.1,36.8,38.9,36.6z M37.6,39.1c-0.2,0.2-0.5,0.3-1,0.3h-0.9v-2.2h0.9c0.2,0,0.4,0,0.5,0.1c0.2,0,0.3,0.1,0.4,0.2
				c0.1,0.1,0.2,0.2,0.2,0.4c0,0.1,0.1,0.3,0.1,0.4C37.9,38.6,37.8,38.9,37.6,39.1z M44,40.2c0,0.1,0,0.2,0.1,0.2s0.2,0.1,0.2,0.1
				H45v1.1c-0.2,0.1-0.3,0.1-0.5,0.2c-0.2,0-0.4,0-0.6,0c-0.3,0-0.6,0-0.9-0.2s-0.5-0.2-0.7-0.4s-0.4-0.4-0.4-0.7
				c-0.1-0.3-0.2-0.6-0.2-1c0-0.3,0-0.6,0.2-0.9c0.1-0.3,0.2-0.5,0.4-0.7s0.4-0.4,0.7-0.4c0.2-0.1,0.5-0.2,0.9-0.2
				c0.2,0,0.3,0,0.5,0s0.3,0,0.4,0.1c0.1,0,0.2,0.1,0.4,0.1s0.2,0.1,0.4,0.2c0.1,0.1,0.2,0.1,0.3,0.1s0.2,0,0.2,0
				c0.1,0,0.1-0.1,0.2-0.2l0.5-0.7c-0.2-0.1-0.3-0.3-0.5-0.4c-0.2-0.1-0.4-0.2-0.6-0.3C45.5,36.1,45.2,36,45,36
				c-0.3,0-0.5-0.1-0.9-0.1c-0.6,0-1.1,0.1-1.6,0.3s-0.9,0.4-1.2,0.7c-0.4,0.3-0.6,0.7-0.8,1.1c-0.4,0.5-0.5,1-0.5,1.5
				s0.1,1,0.3,1.4s0.4,0.8,0.8,1.1c0.3,0.3,0.7,0.5,1.2,0.7s0.9,0.3,1.5,0.3c0.3,0,0.6,0,0.8,0c0.3,0,0.5-0.1,0.7-0.1
				c0.2-0.1,0.4-0.1,0.7-0.2c0.2-0.1,0.4-0.2,0.6-0.4v-2.9H44V40.2z M28.4,36.1c-0.1,0.1-0.2,0.2-0.2,0.2L26.3,43h1.5l2.2-7h-1.3
				C28.6,36,28.5,36,28.4,36.1z M31.7,36.1c-0.1,0.1-0.2,0.2-0.2,0.2L29.7,43h1.5l2.2-7h-1.3C31.9,36,31.8,36,31.7,36.1z"/>
		</g>
	</g>
</g>
<text transform="matrix(1 0 0 1 17.543 46.679)" class="st0 st1 st2">JONGWOONG PARK GRAPHICS</text>
<g>
	<g>
		<g>
			<path class="st3" d="M42.5-0.2H17v32.6h0.7l0,0h29.1l0,0h0.1L47,7.4L42.5-0.2z M39.2,13.2l-9.9,17.3l0,0l-1.1-1.8L37,13.2h-2.3
				L27,26.6l-1.1-1.9l2.2-3.7l-1.2-2.1l-6.6,11.6l0,0l-1.1-1.8l0-0.2l5.5-9.5l-2.2,0l-3.3,5.8L19,1.8h20.1v7.7h5.6l0,13.4L39.2,13.2
				z M24.8,7.9c-1.9,0-3.5,1.6-3.5,3.5s1.6,3.5,3.5,3.5s3.5-1.6,3.5-3.5S26.8,7.9,24.8,7.9z"/>
		</g>
	</g>
</g>
</svg>
